<svg width="39" height="48" viewBox="0 0 39 48" fill="none" xmlns="http://www.w3.org/2000/svg">
<g clip-path="url(#clip0_1_145)">
<path d="M1.23727 29.615L19.3773 47.265V0.695007L1.23727 29.615Z" fill="#08AFBC"/>
<path d="M19.3773 0.695007V47.265L37.5273 29.615L19.3773 0.695007Z" fill="#19D8D3"/>
<path d="M38.2473 29.605C38.2473 29.605 38.2473 29.535 38.2473 29.505C38.2473 29.455 38.2173 29.395 38.1973 29.345C38.1873 29.315 38.1773 29.285 38.1573 29.255C38.1573 29.255 38.1573 29.235 38.1473 29.225L19.9973 0.315C19.7273 -0.105 19.0273 -0.105 18.7673 0.315L0.617303 29.225C0.617303 29.225 0.617303 29.245 0.607303 29.255C0.587303 29.285 0.577303 29.315 0.567303 29.345C0.547303 29.395 0.527303 29.445 0.517303 29.505C0.517303 29.535 0.517303 29.575 0.517303 29.605C0.517303 29.665 0.517303 29.715 0.537303 29.775C0.537303 29.795 0.537303 29.815 0.537303 29.825C0.537303 29.845 0.557303 29.855 0.567303 29.875C0.577303 29.905 0.597303 29.945 0.617303 29.975C0.637303 30.015 0.667303 30.055 0.697303 30.085C0.707303 30.095 0.717303 30.115 0.727303 30.125L18.8673 47.785C19.0073 47.925 19.1873 47.995 19.3773 47.995C19.5673 47.995 19.7473 47.925 19.8873 47.785L38.0273 30.125C38.0273 30.125 38.0373 30.105 38.0473 30.095C38.0673 30.065 38.0873 30.045 38.1073 30.015C38.1373 29.965 38.1673 29.915 38.1873 29.865C38.1873 29.845 38.2073 29.835 38.2073 29.825C38.2073 29.805 38.2073 29.785 38.2073 29.765C38.2173 29.705 38.2273 29.655 38.2273 29.595L38.2473 29.605ZM19.3773 2.065L35.8573 28.335L19.5873 23.285C19.4473 23.245 19.2973 23.245 19.1573 23.285L2.8973 28.335L19.3773 2.065ZM19.3773 46.255L2.6173 29.945L19.3773 24.745L36.1373 29.945L19.3773 46.255Z" fill="white"/>
</g>
<defs>
<clipPath id="clip0_1_145">
<rect width="37.73" height="47.995" fill="white" transform="translate(0.517303)"/>
</clipPath>
</defs>
</svg>
