<svg width="52" height="48" viewBox="0 0 52 48" fill="none" xmlns="http://www.w3.org/2000/svg">
<g clip-path="url(#clip0_1_135)">
<path d="M13.1394 0.727295L0.727295 10.0946V28.6837L25.5612 47.2728V10.0946L13.1394 0.727295Z" fill="#E51A4F"/>
<path d="M37.9733 0.727295L25.5612 10.0946V47.2728L50.3952 28.6837V10.0946L37.9733 0.727295Z" fill="#FF3176"/>
<path d="M38.1964 9.84241L42.5891 13.2654V20.2473C42.5891 20.6448 42.9188 20.9745 43.3164 20.9745C43.7139 20.9745 44.0436 20.6448 44.0436 20.2473V12.9067C44.0436 12.6836 43.937 12.4703 43.7624 12.3345L39.0885 8.68847C38.7685 8.44605 38.3127 8.49453 38.0703 8.81453C37.8279 9.13453 37.8764 9.59029 38.1964 9.83271V9.84241Z" fill="white"/>
<path d="M43.5976 22.1964C43.4231 22.1188 43.2194 22.1188 43.0449 22.1964C42.9576 22.2255 42.8703 22.2836 42.8024 22.3515C42.6667 22.4873 42.5891 22.6715 42.5891 22.8655C42.5891 22.9624 42.6085 23.0497 42.6473 23.1467C42.6861 23.2339 42.7346 23.3115 42.8024 23.3794C42.9382 23.5152 43.1321 23.5927 43.3164 23.5927C43.4134 23.5927 43.5103 23.5733 43.5976 23.5345C43.6849 23.4958 43.7721 23.4473 43.8303 23.3794C43.8982 23.3115 43.9564 23.2339 43.9952 23.1467C44.0243 23.0497 44.0437 22.9624 44.0437 22.8655C44.0437 22.6715 43.9661 22.4873 43.8303 22.3515C43.7624 22.2836 43.6849 22.2255 43.5976 22.1964Z" fill="white"/>
<path d="M50.8315 9.51273L38.4194 0.145455C38.1576 -0.0484848 37.7988 -0.0484848 37.5467 0.145455L25.5709 9.18303L13.5855 0.145455C13.3236 -0.0484848 12.9648 -0.0484848 12.7127 0.145455L0.290909 9.51273C0.106667 9.64849 0 9.86182 0 10.0945V28.6836C0 28.9164 0.106667 29.1297 0.290909 29.2655L25.1248 47.8545C25.2509 47.9515 25.4061 48 25.5612 48C25.7164 48 25.8715 47.9515 25.9976 47.8545L50.8315 29.2655C51.0158 29.1297 51.1224 28.9164 51.1224 28.6836V10.0945C51.1224 9.86182 51.0158 9.64849 50.8315 9.51273ZM49.6679 28.3152L25.5612 46.3612L1.45455 28.3152V10.4533L13.1394 1.63879L25.1152 10.6667C25.377 10.8606 25.7358 10.8606 25.9879 10.6667L37.9733 1.63879L49.6582 10.4533V28.3152H49.6679Z" fill="white"/>
</g>
<defs>
<clipPath id="clip0_1_135">
<rect width="51.1224" height="48" fill="white"/>
</clipPath>
</defs>
</svg>
