<svg width="49" height="48" viewBox="0 0 49 48" fill="none" xmlns="http://www.w3.org/2000/svg">
<g clip-path="url(#clip0_1_162)">
<path d="M24.4273 12.3289H1.15729V47.2689H24.4273V12.3289Z" fill="#D62BC6"/>
<path d="M24.4273 47.2689H47.6973L47.6973 12.3289H24.4273L24.4273 47.2689Z" fill="#FF61E1"/>
<path d="M47.6973 11.5989H41.2073C42.6873 10.3989 43.6273 8.57889 43.6273 6.53889C43.6273 3.74889 41.9973 1.40889 39.3773 0.428892C36.7573 -0.541108 33.9973 0.158892 32.1673 2.27889L24.4473 11.2189L16.7273 2.27889C14.9073 0.158892 12.1473 -0.541108 9.52731 0.428892C6.90731 1.39889 5.27731 3.73889 5.27731 6.53889C5.27731 8.57889 6.22731 10.4089 7.69731 11.5989H1.15731C0.757307 11.5989 0.427307 11.9289 0.427307 12.3289V47.2689C0.427307 47.6689 0.757307 47.9989 1.15731 47.9989H47.7073C48.1073 47.9989 48.4373 47.6689 48.4373 47.2689V12.3289C48.4373 11.9289 48.1073 11.5989 47.7073 11.5989H47.6973ZM46.9773 13.0589V23.2489H25.1573V13.0589H46.9773ZM33.2773 3.22889C34.9773 1.26889 37.2773 1.19889 38.8773 1.78889C40.4673 2.37889 42.1773 3.93889 42.1773 6.53889C42.1773 9.32889 39.9073 11.5989 37.1173 11.5989H26.0473L33.2773 3.22889ZM6.73731 6.53889C6.73731 3.94889 8.43731 2.38889 10.0373 1.78889C10.5773 1.58889 11.2073 1.45889 11.8673 1.45889C13.1373 1.45889 14.5173 1.92889 15.6373 3.21889L22.8673 11.5889H11.7973C9.00731 11.5889 6.73731 9.31889 6.73731 6.52889V6.53889ZM1.87731 13.0589H23.6973V23.2489H1.87731V13.0589ZM1.87731 24.6989H23.6973V46.5389H1.87731V24.6989ZM46.9773 46.5489H25.1573V24.7089H46.9773V46.5489Z" fill="white"/>
</g>
<defs>
<clipPath id="clip0_1_162">
<rect width="48.01" height="47.9989" fill="white" transform="translate(0.427307)"/>
</clipPath>
</defs>
</svg>
