<svg width="72" height="72" viewBox="0 0 72 72" fill="none" xmlns="http://www.w3.org/2000/svg">
<g clip-path="url(#clip0_1_730)">
<path d="M56.57 0H15.43C6.92 0 0 6.92 0 15.43V56.57C0 65.08 6.92 72 15.43 72H56.57C65.08 72 72 65.08 72 56.57V15.43C72 6.92 65.08 0 56.57 0ZM66.45 56.57C66.45 62.02 62.03 66.44 56.58 66.44H15.43C9.98 66.44 5.56 62.02 5.56 56.57V15.43C5.56 9.98 9.98 5.56 15.43 5.56H56.57C62.02 5.56 66.44 9.98 66.44 15.43V56.57H66.45Z" fill="white"/>
<path d="M45.6101 14.95C45.2201 13.83 44.16 13.07 42.9701 13.07C41.7801 13.07 40.7201 13.82 40.3301 14.95L35.9901 27.48L27.92 50.78V44.45L24.68 35.08C24.29 33.96 23.23 33.2 22.04 33.2H13.73L11.8 38.78H20.06L26.39 57.04C26.78 58.16 27.84 58.92 29.03 58.92C30.22 58.92 31.28 58.17 31.67 57.04L36.01 44.51L44.0801 21.21V27.54L47.32 36.91C47.71 38.03 48.7701 38.79 49.96 38.79H58.2701L60.2001 33.21H51.94L45.6101 14.95Z" fill="white"/>
</g>
<defs>
<clipPath id="clip0_1_730">
<rect width="72" height="72" fill="white"/>
</clipPath>
</defs>
</svg>
