<svg width="43" height="48" viewBox="0 0 43 48" fill="none" xmlns="http://www.w3.org/2000/svg">
<g clip-path="url(#clip0_1_153)">
<path d="M0.977264 47.27H21.3373V26.91C10.0873 26.91 0.977264 36.03 0.977264 47.27Z" fill="#09AD40"/>
<path d="M21.3373 26.91V47.27H41.6973C41.6973 36.02 32.5773 26.91 21.3373 26.91Z" fill="#1FCC65"/>
<path d="M31.5173 10.91C31.5173 5.28998 26.9573 0.72998 21.3373 0.72998V21.09C26.9573 21.09 31.5173 16.53 31.5173 10.91Z" fill="#1FCC65"/>
<path d="M11.1573 10.91C11.1573 16.53 15.7173 21.09 21.3373 21.09V0.72998C15.7173 0.72998 11.1573 5.28998 11.1573 10.91Z" fill="#09AD40"/>
<path d="M21.3373 26.18C9.70728 26.18 0.247284 35.64 0.247284 47.27V48H42.4273V47.27C42.4273 35.64 32.9673 26.18 21.3373 26.18ZM1.71728 46.55C2.09728 36.06 10.7573 27.64 21.3373 27.64C31.9173 27.64 40.5773 36.06 40.9573 46.55H1.71728Z" fill="white"/>
<path d="M21.3373 21.82C27.3573 21.82 32.2473 16.93 32.2473 10.91C32.2473 4.89 27.3573 0 21.3373 0C15.3173 0 10.4273 4.89 10.4273 10.91C10.4273 16.93 15.3173 21.82 21.3373 21.82ZM21.3373 1.45C26.5473 1.45 30.7873 5.69 30.7873 10.9C30.7873 16.11 26.5473 20.35 21.3373 20.35C16.1273 20.35 11.8873 16.11 11.8873 10.9C11.8873 5.69 16.1273 1.45 21.3373 1.45Z" fill="white"/>
</g>
<defs>
<clipPath id="clip0_1_153">
<rect width="42.18" height="48" fill="white" transform="translate(0.247284)"/>
</clipPath>
</defs>
</svg>
