<svg width="51" height="48" viewBox="0 0 51 48" fill="none" xmlns="http://www.w3.org/2000/svg">
<g clip-path="url(#clip0_1_140)">
<path d="M19.5391 18.51H0.849121L15.9691 29.49L10.1891 47.27L25.3191 36.28V0.72998L19.5391 18.51Z" fill="#EAA221"/>
<path d="M49.7892 18.51H31.0892L25.3192 0.72998V36.28L40.4392 47.27L34.6592 29.49L49.7892 18.51Z" fill="#FCC53A"/>
<path d="M40.4392 48C40.2892 48 40.1392 47.95 40.0092 47.86L25.3092 37.18L10.6092 47.86C10.3592 48.05 10.0092 48.05 9.74916 47.86C9.48916 47.67 9.38916 47.35 9.48916 47.05L15.0992 29.77L0.419157 19.09C0.169157 18.9 0.0591568 18.58 0.159157 18.28C0.259157 17.98 0.539157 17.78 0.849157 17.78H19.0192L24.6292 0.5C24.7292 0.2 25.0092 0 25.3192 0C25.6292 0 25.9092 0.2 26.0092 0.5L31.6192 17.78H49.7892C50.0992 17.78 50.3792 17.98 50.4792 18.28C50.5792 18.58 50.4792 18.91 50.2192 19.09L35.5192 29.77L41.1292 47.05C41.2292 47.35 41.1292 47.68 40.8692 47.86C40.7392 47.95 40.5892 48 40.4392 48ZM3.08916 19.23L16.3992 28.9C16.6492 29.09 16.7592 29.41 16.6592 29.71L11.5792 45.36L24.8892 35.69C25.1392 35.5 25.4892 35.5 25.7492 35.69L39.0592 45.36L33.9792 29.71C33.8792 29.41 33.9792 29.08 34.2392 28.9L47.5492 19.23H31.0892C30.7792 19.23 30.4992 19.03 30.3992 18.73L25.3192 3.08L20.2392 18.73C20.1392 19.03 19.8592 19.23 19.5492 19.23H3.08916Z" fill="white"/>
</g>
<defs>
<clipPath id="clip0_1_140">
<rect width="50.3949" height="48.0025" fill="white" transform="translate(0.122437)"/>
</clipPath>
</defs>
</svg>
