<svg width="1141" height="448" viewBox="0 0 1141 448" fill="none" xmlns="http://www.w3.org/2000/svg">
<path d="M401.64 289.91C401.64 265.34 399.08 240.18 393.58 218.76C403.21 220.33 413.04 221.12 423.06 221.12C433.67 221.12 444.29 220.33 455.29 218.76C454.11 222.49 453.72 227.6 453.72 233.3C453.72 250.4 458.63 272.02 467.28 272.02C475.93 272.02 482.02 249.02 482.02 231.73C482.02 226.62 481.43 222.1 480.45 218.76C491.46 220.33 502.07 221.12 512.68 221.12C522.7 221.12 532.73 220.33 542.36 218.76C536.86 240.18 534.3 265.34 534.3 289.91C534.3 316.25 537.25 342 542.36 361.85C532.14 360.08 521.72 359.29 511.5 359.29C501.28 359.29 490.86 360.08 480.45 361.85C489.69 338.85 494.21 320.77 494.21 310.94C494.21 306.42 493.23 303.67 491.46 303.08C491.07 302.88 490.67 302.88 490.48 302.88C484.39 302.88 478.29 322.53 467.88 352.21C456.68 322.92 451.37 302.88 445.28 302.88C444.89 302.88 444.69 302.88 444.3 303.08C442.53 303.67 441.55 306.42 441.55 310.94C441.55 320.77 446.07 338.85 455.31 361.85C445.09 360.08 434.67 359.29 424.45 359.29C414.23 359.29 403.81 360.08 393.59 361.85C398.7 342 401.65 316.25 401.65 289.91H401.64Z" fill="#638889"/>
<path d="M556.52 333.55C551.8 319.79 551.8 301.51 551.41 284.81C551.02 261.81 548.66 238.62 543.35 218.77C552.98 220.34 563.01 221.13 573.03 221.13C583.64 221.13 594.26 220.34 605.26 218.77C598.97 235.48 596.61 259.65 596.61 284.02C596.61 296.01 597 323.53 609.58 323.53H609.78C621.97 323.53 623.74 297 623.74 285.6V283.83C623.35 261.23 620.79 238.43 615.68 218.77C625.31 220.34 635.14 221.13 645.16 221.13C655.77 221.13 666.39 220.34 677.39 218.77C671.1 235.67 668.74 260.24 668.74 284.81V293.07C668.74 332.58 665.79 363.83 610.76 363.83H609.78C576.96 363.63 562.8 351.64 556.52 333.56V333.55Z" fill="#638889"/>
<path d="M686.83 291.68C686.83 266.52 683.88 241.17 678.38 218.76C688.01 220.33 697.84 221.12 707.86 221.12C718.47 221.12 729.09 220.33 740.09 218.76C737.14 228.59 731.84 263.77 731.84 290.11C731.84 304.85 733.61 316.84 738.33 319.99C740.49 321.37 743.24 322.15 746.98 322.15C753.66 322.15 763.1 319.2 775.48 309.57C773.91 318.22 772.93 326.87 772.93 335.71C772.93 344.55 773.91 353.01 775.48 361.85C763.69 359.29 745.41 357.72 726.93 357.72C709.44 357.72 691.55 359.1 678.38 361.85C684.08 340.03 686.83 315.86 686.83 291.68Z" fill="#638889"/>
<path d="M798.27 221.91C810.65 221.91 822.64 220.73 829.32 218.77C827.94 224.08 827.16 234.49 827.16 245.89C827.16 266.92 829.72 290.7 835.41 290.7C840.52 290.7 843.08 269.28 843.08 249.23C843.08 236.65 842.1 224.66 840.33 218.77C847.01 220.74 859.2 221.91 871.38 221.91C883.56 221.91 895.95 220.73 903.22 218.77C887.5 246.09 871.58 332.57 868.63 361.86C861.95 359.89 848.19 359.11 834.43 359.11C820.67 359.11 807.11 359.9 800.23 361.86C796.5 334.93 782.15 244.52 766.42 218.77C773.69 220.74 786.08 221.91 798.26 221.91H798.27Z" fill="#638889"/>
<path d="M972.021 258.66C961.411 258.66 957.08 264.36 957.08 268.88C957.08 269.27 957.281 269.67 957.281 270.06C957.871 273.6 961.6 276.74 967.7 276.74C972.61 276.74 978.901 274.77 986.771 269.47C986.181 275.56 985.791 281.85 985.791 287.95C985.791 294.63 986.181 301.12 986.771 307.8C980.481 305.44 975.37 304.46 971.44 304.46C962.01 304.46 958.47 309.77 958.47 313.7C958.47 317.04 962.99 322.15 972.23 322.15C979.11 322.15 988.941 319.01 1001.52 309.57C999.751 318.22 998.97 326.87 998.97 335.71C998.97 344.55 999.761 353.01 1001.52 361.85C989.731 359.29 971.45 357.72 952.97 357.72C934.49 357.72 917.39 359.1 904.23 361.85C909.54 341.8 912.681 317.23 912.681 290.9C912.681 267.51 910.13 242.75 904.23 218.77C918.77 221.33 933.32 222.31 947.86 222.31C965.75 222.31 983.631 220.74 1001.52 218.58C999.751 227.23 998.97 235.29 998.97 243.15C998.97 251.01 999.761 258.87 1001.52 267.72C988.551 261.04 978.921 258.68 972.041 258.68L972.021 258.66Z" fill="#638889"/>
<path d="M1044.15 307.41C1044.15 305.05 1044.15 302.69 1043.95 300.53C1041.2 271.24 1018.4 244.51 1002.48 218.77C1009.75 220.74 1022.14 221.91 1034.32 221.91C1046.5 221.91 1058.69 220.73 1065.37 218.77C1063.8 224.67 1062.82 232.92 1062.82 240.98C1062.82 253.17 1065.18 264.37 1071.27 264.37H1071.47C1076.97 264.17 1079.33 253.17 1079.33 241.18C1079.33 233.32 1078.35 224.87 1076.58 218.77C1083.26 220.74 1095.45 221.91 1107.63 221.91C1119.81 221.91 1132.2 220.73 1139.47 218.77C1123.55 246.09 1096.82 269.28 1094.46 300.93C1094.26 302.31 1094.26 304.07 1094.26 306.04C1094.26 321.57 1098.19 349.87 1101.73 361.86C1091.51 360.09 1080.31 359.3 1069.3 359.3C1058.29 359.3 1047.09 360.09 1036.67 361.86C1040.6 347.12 1044.14 323.73 1044.14 307.42L1044.15 307.41Z" fill="#638889"/>
<path d="M387.99 424.37C386.53 421.24 386.6 409.97 388.2 400.5C389.03 395.7 390.43 390.9 392.93 384.29C394.32 380.46 394.81 379.77 396.48 379.14C398.08 378.51 403.09 378.58 405.66 379.28C408.72 380.11 410.67 381.16 412.27 382.9C415.89 386.73 417.21 391.53 416.72 398.69C416.23 404.95 413.87 411.77 410.18 417.62C407.12 422.28 402.39 425.83 397.72 426.8C395.35 427.29 392.36 427.43 391.32 427.08C389.93 426.59 388.54 425.48 387.98 424.37H387.99ZM395.02 417.34L395.16 419.15L395.99 419.01C396.41 418.87 397.38 418.52 398.15 418.11C401.07 416.72 402.95 414.56 405.04 410.39C407.41 405.8 408.38 402.6 408.66 398.28C409.01 393.34 408.38 390.28 406.57 388.19C405.8 387.36 405.39 387.08 404.13 386.66C403.3 386.38 401.97 386.17 401.28 386.1L400.03 385.96L399.33 388.19C397.66 393.2 396.48 398.7 395.64 404.75C395.15 408.58 394.81 415.19 395.01 417.34H395.02Z" fill="#638889"/>
<path d="M427.3 427.01C425.28 426.45 423.75 425.55 422.01 423.81C420.06 421.86 419.16 419.91 418.6 416.5C417.9 412.67 418.39 405.51 419.78 398.62C421.1 392.15 422.98 385.33 424.23 382.34C424.79 381.02 425.97 379.91 426.94 379.7C432.78 378.52 443.01 378.38 445.31 379.49C447.12 380.32 448.09 382.41 447.47 384.22C447.12 385.26 445.66 386.59 444.55 386.79C444.13 386.86 442.74 386.79 441.56 386.65C438.64 386.23 430.71 386.23 430.43 386.65C429.94 387.48 427.02 401.89 427.3 402.24C427.37 402.24 428.55 402.24 430.01 402.1C433.35 401.75 436.55 402.03 437.73 402.73C440.03 404.05 440.37 407.11 438.43 408.85C437.52 409.75 436.9 409.89 432.38 409.75C429.94 409.61 427.65 409.68 427.16 409.75L426.33 409.89V412.12C426.33 417.27 427.51 419.29 430.44 419.29C431.76 419.29 434.55 418.32 437.19 416.99C438.3 416.36 438.93 416.22 439.83 416.22C443.17 416.22 444.84 420.33 442.47 422.83C441.22 424.08 436.56 426.24 433.35 427C431.61 427.42 428.83 427.42 427.3 427V427.01Z" fill="#638889"/>
<path d="M473.92 386.17C473.09 388.67 472.18 391.67 469.88 399.53C469.11 402.03 468.07 406.28 467.58 407.74C467.09 409.2 465.91 412.68 465 415.53C463.05 421.79 462.15 423.67 460.41 425.48C458.74 427.22 457.28 427.64 455.26 426.94C452.69 426.03 451.15 423.53 450.18 418.87C449.21 413.86 449.07 410.1 449.14 396.33C449.14 387.28 449.28 382.9 449.42 382.34C449.77 381.16 450.95 380.04 452 379.77C453.6 379.35 455.2 380.19 456.04 381.79C456.32 382.35 456.67 390 457.01 402.46C457.08 407.05 457.29 411.23 457.36 411.71C457.5 412.61 457.64 412.13 459.52 406.56C460.63 403.22 461.96 398.07 462.44 396.33C463.69 392.22 465.08 387.49 466.27 383.81C467.04 381.31 467.31 380.68 468.01 379.98C469.61 378.38 471.63 378.31 473.37 379.7C474.9 381.02 475.04 382.55 473.93 386.17H473.92Z" fill="#638889"/>
<path d="M481.99 427.01C479.97 426.45 478.44 425.55 476.7 423.81C474.75 421.86 473.85 419.91 473.29 416.5C472.59 412.67 473.08 405.51 474.47 398.62C475.79 392.15 477.67 385.33 478.92 382.34C479.48 381.02 480.66 379.91 481.63 379.7C487.47 378.52 497.7 378.38 500 379.49C501.81 380.32 502.78 382.41 502.16 384.22C501.81 385.26 500.35 386.59 499.24 386.79C498.82 386.86 497.43 386.79 496.25 386.65C493.33 386.23 485.4 386.23 485.12 386.65C484.63 387.48 481.71 401.89 481.99 402.24C482.06 402.24 483.24 402.24 484.7 402.1C488.04 401.75 491.24 402.03 492.42 402.73C494.72 404.05 495.06 407.11 493.12 408.85C492.21 409.75 491.59 409.89 487.07 409.75C484.63 409.61 482.34 409.68 481.85 409.75L481.02 409.89V412.12C481.02 417.27 482.2 419.29 485.13 419.29C486.45 419.29 489.24 418.32 491.88 416.99C492.99 416.36 493.62 416.22 494.52 416.22C497.86 416.22 499.53 420.33 497.16 422.83C495.91 424.08 491.25 426.24 488.04 427C486.3 427.42 483.52 427.42 481.99 427V427.01Z" fill="#638889"/>
<path d="M524.58 422.63C523.54 423.74 520.13 425.27 516.3 426.18C514.49 426.6 510.66 426.81 509.06 426.53C505.02 425.76 501.68 422.63 500.78 418.6C499.53 413.17 500.29 407.05 504.33 390.84C506.9 380.47 507.11 379.78 508.64 379.08C511.01 377.97 513.65 379.57 513.65 382.07C513.65 382.56 512.68 387.99 511.49 394.04C508.71 407.96 508.29 410.18 508.29 413.31C508.29 417.9 508.78 418.6 512.05 418.6C514.14 418.53 516.15 418.04 519.01 416.86C520.96 416.03 522.35 415.96 523.6 416.65C525.69 417.9 526.17 420.69 524.57 422.63H524.58Z" fill="#638889"/>
<path d="M556.23 402.1C555.47 409.48 553.38 416.22 550.46 420.75C549.14 422.77 546.63 425.27 545.1 426.11C543.43 427.01 540.581 427.64 539.391 427.43L537.72 427.08C532.57 426.04 528.67 421.44 527.35 414.83C526.65 411.77 527.001 405.71 528.051 400.43C528.541 398 530.001 393.75 531.251 390.83C534.801 383.32 539.181 379.49 545.241 378.86C547.191 378.65 547.681 378.65 548.651 379C550.391 379.56 552.131 380.74 553.171 382.2C556.651 386.93 557.34 391.52 556.23 402.1ZM545.521 386.38C544.821 386.24 543.43 386.94 542.32 387.84C539.61 390.07 536.34 398.28 535.36 404.68C534.73 409.06 534.871 413.31 535.641 415.26C536.821 417.97 538.141 419.16 540.161 419.16C541.001 419.16 541.27 419.02 542.32 418.05C545.8 414.71 547.891 407.96 548.651 398.01C549.141 391.12 548.021 387.09 545.521 386.39V386.38Z" fill="#638889"/>
<path d="M567.23 418.04H566.12L566.33 422.08C566.33 424.24 566.33 424.65 565.84 425.49C565 427.02 563.13 427.86 561.25 427.51C560.9 427.44 560.21 426.95 559.72 426.4C558.4 425.15 558.19 422.92 558.19 417.35C558.26 409.7 558.89 404.27 560.35 397.66C562.09 390.01 562.721 387.85 564.041 384.3C565.921 379.15 566.41 378.73 571.07 378.73C575.73 378.73 578.721 379.77 581.651 382.7C583.181 384.23 583.74 385 584.5 386.53C587.7 393.42 587.14 401.91 582.97 408.31C579.42 413.74 572.46 418.05 567.24 418.05L567.23 418.04ZM566.531 410.04L567.5 409.97C568.06 409.9 569.101 409.62 569.801 409.34C571.471 408.71 573.9 406.84 575.37 405.1C578.15 401.69 579.06 397.72 578.22 392.99C577.52 389.3 575.85 386.87 573.49 386.38C571.05 385.82 571.191 385.68 570.431 388.19C570.081 389.37 569.39 392.36 568.97 394.8C568.55 397.3 568 400.23 567.72 401.41C567.23 403.5 566.961 405.72 566.681 408.51L566.541 410.04H566.531Z" fill="#638889"/>
<path d="M597.011 427.01C594.991 426.45 593.461 425.55 591.721 423.81C589.771 421.86 588.871 419.91 588.311 416.5C587.611 412.67 588.101 405.51 589.491 398.62C590.811 392.15 592.691 385.33 593.941 382.34C594.501 381.02 595.681 379.91 596.651 379.7C602.491 378.52 612.721 378.38 615.021 379.49C616.831 380.32 617.801 382.41 617.181 384.22C616.831 385.26 615.371 386.59 614.261 386.79C613.841 386.86 612.451 386.79 611.271 386.65C608.351 386.23 600.421 386.23 600.141 386.65C599.651 387.48 596.731 401.89 597.011 402.24C597.081 402.24 598.261 402.24 599.721 402.1C603.061 401.75 606.261 402.03 607.441 402.73C609.741 404.05 610.081 407.11 608.141 408.85C607.241 409.75 606.611 409.89 602.091 409.75C599.651 409.61 597.361 409.68 596.871 409.75L596.041 409.89V412.12C596.041 417.27 597.221 419.29 600.151 419.29C601.471 419.29 604.251 418.32 606.901 416.99C608.011 416.36 608.641 416.22 609.541 416.22C612.881 416.22 614.551 420.33 612.181 422.83C610.931 424.08 606.271 426.24 603.061 427C601.321 427.42 598.541 427.42 597.011 427V427.01Z" fill="#638889"/>
<path d="M642.24 404.33C641.41 406 640.78 406.83 639.25 408.5C637.23 410.59 634.31 412.81 631.6 414.28L630.07 415.18L631.53 416.09C633.34 417.27 635.98 418.39 638.07 418.8C640.37 419.29 640.44 419.29 641.41 420.19C642.52 421.16 642.87 422.21 642.66 423.6C642.52 424.85 641.34 426.31 640.08 426.73C637.23 427.63 629.57 424.57 625.75 421.02L624.71 420.05L624.57 421.93C624.5 422.97 624.29 424.16 624.08 424.5C623.38 425.89 621.85 426.94 620.39 426.94C620.11 426.94 619.48 426.73 619 426.45C618.44 426.24 617.75 425.62 617.4 425.2C617.4 425.2 616.22 424.3 616.7 417.62C616.77 410.31 617.19 405.44 618.44 397.37C619.48 390.76 621.64 382.76 622.89 380.88C623.72 379.7 625.05 379.14 627.83 378.86C633.33 378.3 637.22 379.42 640.42 382.62C645.15 387.21 645.99 396.61 642.23 404.33H642.24ZM636.53 393.48C636.25 389.65 635.42 387.84 633.26 386.8C631.8 386.1 629.02 385.76 628.6 386.24C628.39 386.59 627.42 390.49 626.93 393.2C626.79 394.03 626.37 397.31 626.03 400.58C625.68 403.92 625.26 406.98 625.2 407.54C625.153 408.187 625.316 408.443 625.69 408.31C625.97 408.17 626.8 407.82 627.57 407.4C629.31 406.5 632.3 404.27 633.55 402.95C635.64 400.65 636.75 397.11 636.54 393.49L636.53 393.48Z" fill="#638889"/>
<path d="M685.58 381.02C686.14 382.13 686.14 383.25 685.37 390C684.81 394.73 684.53 395.71 683.21 396.61C682.65 397.03 682.17 397.17 681.12 397.17C679.45 397.17 678.62 396.68 677.29 394.87C676.25 393.48 675.34 392.71 674.3 392.57C673.67 392.43 673.47 392.5 672.7 393.34C671.38 394.73 671.45 395.36 672.98 396.61C673.61 397.17 674.93 397.93 675.76 398.28C677.57 399.18 678.26 399.74 678.82 401.06C679.31 402.24 679.1 403.63 678.19 404.82C677.49 405.79 676.73 406.21 673.94 406.84C673.04 406.98 671.99 407.47 671.51 407.75C669.35 409.28 667.75 411.58 667.89 413.04C667.96 413.74 668.03 413.74 668.86 413.67C670.25 413.6 672.83 412.21 674.84 410.54C677.27 408.52 678.39 408.17 680.13 409.01C682.01 409.84 682.77 411.31 682.77 413.88C682.77 416.87 681.8 423.83 681.1 425.43C680.68 426.4 679.57 427.31 678.46 427.66C677.42 427.94 677.35 427.94 676.23 427.52C675.19 427.17 674.42 426.48 673.93 425.43C673.58 424.73 673.58 424.25 673.65 422.93C673.79 421.96 673.86 421.05 673.93 420.84C674.07 420.63 673.86 420.63 672.82 420.98C670.73 421.68 668.16 422.02 666.63 421.68C663.99 421.19 661.69 419.45 660.51 416.88C659.95 415.77 659.88 415.28 659.95 413.26C659.95 411.24 660.02 410.83 660.65 409.22C661.76 406.58 663.99 403.86 666.22 402.33L666.78 401.91L665.95 401C664.84 399.82 664.07 398.22 663.72 396.55C663.51 395.51 663.51 394.95 663.79 393.63C664.28 391.54 665.11 390.01 666.78 388.2C669.63 385.07 672.83 384.23 676.66 385.42L678.4 385.98L678.68 384.31C679.1 381.81 679.31 381.11 679.86 380.41C681.32 378.53 684.45 378.88 685.57 381.04L685.58 381.02Z" fill="#638889"/>
<path d="M731.23 403.43C731.58 400.65 731.861 398.35 731.791 398.28C731.721 398.21 730.54 400.71 726.01 410.04C723.64 415.05 721.901 416.37 718.771 415.47C718.281 415.4 717.521 414.84 717.031 414.36C715.571 412.9 715.361 411.99 715.151 406.01L715.08 400.72L713.34 406.15C710.7 414.5 709.171 420.14 708.681 422.5C708.401 423.68 708.051 425 707.781 425.42C707.081 426.6 705.341 427.37 704.021 426.95C702.421 426.46 701.311 424.86 701.311 423.19C701.311 420.27 704.51 407.33 707.85 397.1C712.79 382 715.09 378.66 719.61 379.91C721.21 380.33 722.46 381.93 722.88 384.15C722.95 384.64 723.09 387.7 723.23 391.04L723.37 397.02L725.181 393.68C726.151 391.8 727.55 389.3 728.24 388.04C731.3 382.33 733.11 379.83 734.57 379.06C736.17 378.29 738.4 378.71 739.58 380.03C741.6 382.12 741.6 385.53 739.58 401.81C739.02 405.71 738.401 411.34 738.051 414.27C737.351 420.67 736.8 424.29 736.38 425.06C735.34 427.01 732.9 427.77 730.95 426.66C729.63 425.96 729 424.85 729 423.25C729 422.07 729.76 414.97 731.23 403.42V403.43Z" fill="#638889"/>
<path d="M749.04 420.47C748.21 422.42 747.44 424.02 747.44 424.16C747.44 424.23 747.09 424.79 746.74 425.34C745.63 426.8 744.03 427.29 742.5 426.59C741.04 425.96 740.06 424.16 740.41 422.62C741.38 418.58 750.08 400.29 755.44 390.75C760.38 382.05 761.84 379.96 763.58 379.06C765.67 378.02 768.66 379.27 769.56 381.63C770.12 383.16 770.19 385.46 770.05 404.17C769.91 417.25 769.677 424.117 769.35 424.77C768.51 426.3 767.61 426.79 765.8 426.79C764.13 426.79 763.43 426.51 762.53 425.26C762.04 424.63 762.04 424.22 761.97 420.46L761.9 416.36H760.93C759.61 416.36 752.3 416.85 751.4 416.92C750.77 417.06 750.63 417.27 749.03 420.47H749.04ZM755.02 408.99H761.91V402.45C761.91 398.83 761.84 395.91 761.84 395.91C761.63 395.91 756.2 406.21 755.37 408.16L755.02 408.99Z" fill="#638889"/>
<path d="M779.38 412.26L780.35 408.78L779.52 407.6C778.27 405.93 776.67 403.22 775.69 401.06C774.65 398.56 773.12 393.61 772.7 391.18C772.28 388.74 771.79 382.48 772 381.58C772.42 379.7 774.44 378.45 776.17 378.87C778.26 379.43 778.81 380.54 779.37 384.92C779.79 388.75 780.2 390.49 781.11 393.06C781.88 395.36 783.41 398.9 783.61 398.9C783.68 398.9 784.03 398.07 784.38 397.02C785.28 394.45 788.42 388.39 790.5 385.12C793.77 379.9 795.02 378.72 797.18 378.93C798.57 379.07 799.55 379.83 800.03 381.09C800.59 382.41 800.38 383.32 799.2 385.13C797.53 387.57 796.14 390.14 794.54 393.41C791.2 400.44 786.4 415.33 785.22 422.22C784.73 424.86 783.97 426.05 782.3 426.6C781.4 426.95 780.84 427.02 780.07 426.81C779.31 426.6 778.12 425.63 777.64 424.79C776.73 423.4 777.29 419.57 779.38 412.27V412.26Z" fill="#638889"/>
<path d="M796.43 406.84C796.85 402.53 798.17 396.26 799.77 391.39C800.6 388.75 803.11 382.41 803.67 381.37C804.92 379.07 811.88 377.89 815.99 379.35C820.03 380.81 823.3 384.43 824.13 388.46C825.45 394.65 822.95 401.82 817.94 406.62L816.2 408.36C817.1 408.92 818.77 410.52 819.54 411.56C822.32 415.39 822.04 419.98 818.77 423.18C816.68 425.34 814.18 426.38 810.07 427.01C807.57 427.43 805.96 427.43 803.88 427.15C803.12 427.01 801.72 426.8 800.75 426.73C797.34 426.31 796.58 425.27 796.16 420.61C795.88 417.55 796.02 411.08 796.44 406.83L796.43 406.84ZM803.94 414.01L804.01 416.51L804.08 418.95L804.78 419.16C805.89 419.37 807.01 419.37 808.95 419.09C811.11 418.81 813.06 417.98 813.26 417.28C813.54 416.45 812.5 415.12 810.96 414.36C809.92 413.87 809.29 413.73 807.48 413.66C806.16 413.59 804.97 413.66 804.63 413.8L803.93 414.01H803.94ZM805.12 404.62C805.19 404.62 805.89 404.41 806.58 404.2C810.55 402.81 813.54 400.37 815.07 397.24C816.04 395.36 816.39 393.76 816.39 391.6C816.39 389.86 815.97 388.68 814.93 387.63C813.96 386.59 813.26 386.24 811.73 386.1C809.64 385.82 809.5 385.96 808.32 389.58C807 393.48 806.51 395.36 805.61 400.09C804.84 403.99 804.78 404.61 805.12 404.61V404.62Z" fill="#638889"/>
<path d="M834.07 427.01C832.05 426.45 830.52 425.55 828.78 423.81C826.83 421.86 825.93 419.91 825.37 416.5C824.67 412.67 825.16 405.51 826.55 398.62C827.87 392.15 829.75 385.33 831 382.34C831.56 381.02 832.74 379.91 833.71 379.7C839.55 378.52 849.78 378.38 852.08 379.49C853.89 380.32 854.86 382.41 854.24 384.22C853.89 385.26 852.43 386.59 851.32 386.79C850.9 386.86 849.51 386.79 848.33 386.65C845.41 386.23 837.48 386.23 837.2 386.65C836.71 387.48 833.79 401.89 834.07 402.24C834.14 402.24 835.32 402.24 836.78 402.1C840.12 401.75 843.32 402.03 844.5 402.73C846.8 404.05 847.14 407.11 845.2 408.85C844.3 409.75 843.67 409.89 839.15 409.75C836.71 409.61 834.42 409.68 833.93 409.75L833.1 409.89V412.12C833.1 417.27 834.28 419.29 837.21 419.29C838.53 419.29 841.31 418.32 843.96 416.99C845.07 416.36 845.7 416.22 846.6 416.22C849.94 416.22 851.61 420.33 849.24 422.83C847.99 424.08 843.33 426.24 840.12 427C838.38 427.42 835.6 427.42 834.07 427V427.01Z" fill="#638889"/>
<path d="M880.55 392.36C879.65 399.87 879.3 402.66 879.37 402.66C879.37 402.73 880 402.66 880.69 402.59C881.39 402.45 883.47 402.38 885.42 402.38C888.62 402.38 888.97 402.38 889.87 402.87C892.45 404.19 892.58 407.6 890.22 409.34C889.66 409.83 889.18 409.83 884.1 409.97C881.11 410.04 878.6 410.11 878.53 410.18C878.32 410.32 877.97 415.82 877.76 419.92C877.62 424.65 877.55 425 876.72 425.97C875.4 427.5 873.66 427.78 871.92 426.87C871.22 426.52 870.74 426.04 870.32 425.34C869.76 424.37 869.76 424.16 869.76 420.26C869.83 413.44 870.66 405.09 872.26 395.56C873.37 388.88 873.58 387.91 874.83 384.01C875.6 381.51 876.29 380.32 877.27 379.77C878.73 379 889.17 378.38 893.27 378.87C896.54 379.29 897.72 379.64 898.56 380.61C900.02 382.28 899.95 384.44 898.49 385.97C897.31 387.15 896.19 387.36 893.62 386.8C891.81 386.45 890.28 386.38 886.52 386.38H881.72L881.3 387.98C881.09 388.88 880.74 390.83 880.53 392.36H880.55Z" fill="#638889"/>
<path d="M899.75 421.66C898.29 418.81 897.94 417.14 897.94 411.99C897.94 407.4 898.081 405.66 899.051 399.81C900.721 390.07 902.251 381.58 903.021 380.61C904.551 378.52 907.061 378.38 908.661 380.26C909.491 381.37 909.56 382.35 908.94 385.69C908.59 387.36 907.691 395.01 907.061 399.47C905.881 408.38 905.601 414.08 906.291 416.52C906.851 418.89 908.24 419.65 910.46 418.75C912.41 417.98 914.98 413.32 916.58 407.76C918.81 400.11 919.711 393.7 920.551 384.94C920.901 381.04 921.46 379.79 923.19 379.02C925.49 378.05 928.2 379.51 928.69 381.87C928.83 382.63 928.2 390.22 927.44 396.06C927.02 399.75 925.071 407.68 923.541 412.41C922.011 417.14 919.09 422.08 916.58 424.31C913.94 426.61 909.411 427.72 906.141 426.81C903.151 426.04 901.2 424.44 899.74 421.66H899.75Z" fill="#638889"/>
<path d="M953.19 422.63C952.15 423.74 948.74 425.27 944.91 426.18C943.1 426.6 939.27 426.81 937.67 426.53C933.63 425.76 930.29 422.63 929.39 418.6C928.14 413.17 928.9 407.05 932.94 390.84C935.51 380.47 935.72 379.78 937.25 379.08C939.62 377.97 942.26 379.57 942.26 382.07C942.26 382.56 941.29 387.99 940.1 394.04C937.32 407.96 936.9 410.18 936.9 413.31C936.9 417.9 937.39 418.6 940.66 418.6C942.75 418.53 944.76 418.04 947.62 416.86C949.57 416.03 950.96 415.96 952.21 416.65C954.3 417.9 954.78 420.69 953.18 422.63H953.19Z" fill="#638889"/>
<path d="M979.91 422.63C978.87 423.74 975.46 425.27 971.63 426.18C969.82 426.6 965.99 426.81 964.39 426.53C960.35 425.76 957.01 422.63 956.11 418.6C954.86 413.17 955.62 407.05 959.66 390.84C962.23 380.47 962.44 379.78 963.97 379.08C966.34 377.97 968.98 379.57 968.98 382.07C968.98 382.56 968.01 387.99 966.82 394.04C964.04 407.96 963.62 410.18 963.62 413.31C963.62 417.9 964.11 418.6 967.38 418.6C969.47 418.53 971.48 418.04 974.34 416.86C976.29 416.03 977.68 415.96 978.93 416.65C981.02 417.9 981.5 420.69 979.9 422.63H979.91Z" fill="#638889"/>
<path d="M996.191 418.46C996.191 416.44 998.001 414.63 1000.09 414.63C1001.34 414.63 1001.83 414.84 1003.5 416.09C1005.1 417.34 1006.91 417.97 1009.48 418.11C1013.03 418.25 1015.12 417.14 1015.74 414.77C1016.44 411.85 1015.18 409.97 1010.45 406.56C1004.67 402.46 1002.38 399.95 1001.13 396.12C1000.02 393.06 1000.36 389.16 1001.89 386.31C1004.6 381.3 1011.42 378.1 1017.89 378.8C1021.58 379.22 1024.08 380.54 1025.75 382.77C1027.35 384.93 1027.35 386.81 1025.75 388.2C1024.15 389.59 1022.41 389.45 1020.67 387.71C1019.63 386.8 1019.28 386.6 1018.17 386.39C1016.43 386.11 1013.93 386.46 1012.33 387.22C1011.7 387.5 1010.66 388.26 1010.03 388.89C1008.22 390.7 1008.01 392.86 1009.4 395.15C1010.1 396.19 1011.42 397.31 1015.52 400.37C1021.02 404.48 1022.96 407.05 1023.66 411.36C1025.12 419.5 1018.86 426.25 1010.02 426.11C1008.77 426.11 1007.24 426.04 1006.61 425.9C1004.87 425.62 1001.95 424.58 1000.56 423.81C997.981 422.35 996.181 420.12 996.181 418.45L996.191 418.46Z" fill="#638889"/>
<path d="M1057.77 386.24C1056.52 387.49 1055.68 387.56 1051.72 387.07C1049.91 386.79 1048.31 386.65 1048.17 386.72C1048.03 386.93 1047.54 389.29 1046.43 396.11L1044.55 406.48C1043.58 411.63 1042.88 416.57 1042.46 421.37C1042.18 424.43 1041.76 425.54 1040.58 426.38C1039.67 427.01 1037.66 427.21 1036.61 426.73C1035.64 426.31 1034.66 425.13 1034.52 424.16C1034.1 422.07 1035.01 414 1036.61 405.23C1037.51 400.22 1040.16 387.83 1040.58 386.86C1040.72 386.51 1039.12 386.58 1033.9 387.07C1032.58 387.21 1031.46 387.14 1030.98 387.07C1029.52 386.65 1028.41 385.19 1028.41 383.73C1028.41 381.92 1029.52 380.67 1031.47 380.11C1032.79 379.76 1039.75 379.07 1044.13 378.79C1049.63 378.51 1055.33 379.07 1057.07 380.11C1059.23 381.5 1059.57 384.42 1057.77 386.23V386.24Z" fill="#638889"/>
<path d="M1055.27 420.47C1054.43 422.42 1053.67 424.02 1053.67 424.16C1053.67 424.23 1053.32 424.79 1052.97 425.34C1051.86 426.8 1050.26 427.29 1048.73 426.59C1047.27 425.96 1046.29 424.16 1046.64 422.62C1047.61 418.58 1056.31 400.29 1061.67 390.75C1066.61 382.05 1068.07 379.96 1069.81 379.06C1071.9 378.02 1074.89 379.27 1075.79 381.63C1076.35 383.16 1076.42 385.46 1076.28 404.17C1076.14 417.25 1075.91 424.117 1075.58 424.77C1074.75 426.3 1073.84 426.79 1072.03 426.79C1070.36 426.79 1069.66 426.51 1068.76 425.26C1068.27 424.63 1068.27 424.22 1068.2 420.46L1068.13 416.36H1067.16C1065.84 416.36 1058.53 416.85 1057.63 416.92C1057 417.06 1056.86 417.27 1055.26 420.47H1055.27ZM1061.25 408.99H1068.14V402.45C1068.14 398.83 1068.07 395.91 1068.07 395.91C1067.86 395.91 1062.43 406.21 1061.6 408.16L1061.25 408.99Z" fill="#638889"/>
<path d="M1099.24 395.98C1100.14 393.34 1100.49 391.81 1100.49 390C1100.49 388.19 1100.07 386.87 1099.31 386.87C1097.36 386.73 1096.11 387.36 1094.02 389.58C1088.52 395.56 1085.32 410.45 1088.31 416.3C1089.22 418.11 1091.3 419.15 1092.69 418.6C1094.01 418.04 1095.96 415.89 1097.21 413.52C1098.46 411.22 1099.09 410.53 1100.13 410.11C1102.91 409.07 1105.97 411.5 1105.42 414.42C1105.21 415.46 1103.96 418.11 1102.64 420.06C1101.53 421.73 1099.37 423.82 1097.63 425C1095.19 426.6 1091.99 427.23 1089.49 426.53C1084.41 425.14 1081.35 421.87 1079.96 416.51C1078.85 412.4 1078.78 408.65 1079.68 403.71C1081.35 394.8 1084.27 388.19 1088.52 383.81C1093.11 379.01 1098.19 377.55 1102.71 379.64C1105.21 380.75 1107.23 383.4 1107.86 386.39C1108.28 388.41 1108 392.3 1107.3 394.81C1106.47 397.52 1105.28 400.03 1104.38 400.79C1102.99 401.97 1100.9 401.76 1099.65 400.3C1098.54 399.12 1098.47 398.14 1099.23 395.99L1099.24 395.98Z" fill="#638889"/>
<path d="M1115.8 416.44C1115.73 417.62 1115.66 419.78 1115.73 421.31C1115.73 423.61 1115.73 424.23 1115.31 424.93C1114.4 426.74 1111.83 427.64 1110.16 426.81C1109.74 426.53 1109.05 425.98 1108.7 425.56C1108.14 424.79 1108 424.38 1107.79 422.36C1107.51 419.72 1107.79 412.83 1108.42 406.84C1109.32 398.28 1113.08 382.84 1114.82 380.26C1115.52 379.22 1117.12 378.52 1118.3 378.73C1119.83 379.01 1121.15 380.68 1121.15 382.14C1121.15 382.56 1120.73 384.37 1120.25 386.24C1119.76 388.05 1119 391.39 1118.65 393.62L1117.81 398.14C1117.76 398.513 1117.93 398.56 1118.3 398.28C1119.55 397.45 1130.55 385.48 1133.61 381.65C1134.86 379.98 1135.49 379.56 1136.95 379.56C1138.41 379.56 1139.45 380.19 1140.01 381.44C1140.64 382.83 1140.64 383.39 1139.8 384.99C1139.1 386.38 1135 391.74 1131.1 396.33C1128.6 399.32 1123.93 404.05 1121.43 406.28C1120.52 407.05 1119.83 407.74 1119.83 407.81C1119.83 407.88 1121.22 408.64 1122.96 409.48C1129.01 412.33 1135.14 416.79 1136.39 419.22C1137.78 421.93 1135.62 425.13 1132.63 424.79C1131.38 424.72 1131.17 424.58 1127.2 421.38C1123.93 418.74 1121.84 417.34 1118.57 415.67L1115.93 414.28L1115.79 416.44H1115.8Z" fill="#638889"/>
<path d="M420.33 114.48C420.33 79.15 416.19 43.5401 408.46 12.0801C421.98 14.2901 435.79 15.3901 449.86 15.3901C464.77 15.3901 479.67 14.2901 495.13 12.0801C490.99 25.8801 483.54 75.2901 483.54 112.27C483.54 132.97 486.02 149.81 492.65 154.22C495.69 156.15 499.55 157.26 504.8 157.26C514.18 157.26 527.43 153.12 544.82 139.59C542.61 151.74 541.23 163.88 541.23 176.3C541.23 188.72 542.61 200.59 544.82 213.01C528.26 209.42 502.59 207.21 476.64 207.21C452.07 207.21 426.96 209.14 408.46 213.01C416.46 182.37 420.33 148.42 420.33 114.47V114.48Z" fill="#638889"/>
<path d="M641.42 68.11C626.51 68.11 620.439 76.1101 620.439 82.4601C620.439 83.0101 620.719 83.5601 620.719 84.1201C621.549 89.0901 626.789 93.5001 635.349 93.5001C642.249 93.5001 651.08 90.74 662.12 83.29C661.29 91.85 660.74 100.68 660.74 109.24C660.74 118.62 661.29 127.73 662.12 137.12C653.29 133.81 646.109 132.43 640.589 132.43C627.339 132.43 622.37 139.88 622.37 145.4C622.37 150.09 628.719 157.27 641.689 157.27C651.349 157.27 665.149 152.85 682.819 139.6C680.339 151.75 679.229 163.89 679.229 176.31C679.229 188.73 680.329 200.6 682.819 213.02C666.259 209.43 640.59 207.22 614.64 207.22C588.69 207.22 564.679 209.15 546.189 213.02C553.639 184.87 558.06 150.36 558.06 113.38C558.06 80.5301 554.469 45.7601 546.189 12.0801C566.609 15.6701 587.039 17.05 607.469 17.05C632.589 17.05 657.709 14.8401 682.819 11.8101C680.339 23.9601 679.229 35.2701 679.229 46.3101C679.229 57.3501 680.329 68.3901 682.819 80.8101C664.599 71.4301 651.08 68.11 641.42 68.11Z" fill="#638889"/>
<path d="M779.43 68.11C764.52 68.11 758.45 76.1101 758.45 82.4601C758.45 83.0101 758.73 83.5601 758.73 84.1201C759.56 89.0901 764.8 93.5001 773.36 93.5001C780.26 93.5001 789.09 90.74 800.13 83.29C799.3 91.85 798.75 100.68 798.75 109.24C798.75 118.62 799.3 127.73 800.13 137.12C791.3 133.81 784.12 132.43 778.6 132.43C765.35 132.43 760.38 139.88 760.38 145.4C760.38 150.09 766.73 157.27 779.7 157.27C789.36 157.27 803.16 152.85 820.83 139.6C818.35 151.75 817.24 163.89 817.24 176.31C817.24 188.73 818.34 200.6 820.83 213.02C804.27 209.43 778.6 207.22 752.65 207.22C726.7 207.22 702.69 209.15 684.2 213.02C691.65 184.87 696.07 150.36 696.07 113.38C696.07 80.5301 692.48 45.7601 684.2 12.0801C704.62 15.6701 725.05 17.05 745.48 17.05C770.6 17.05 795.72 14.8401 820.83 11.8101C818.35 23.9601 817.24 35.2701 817.24 46.3101C817.24 57.3501 818.34 68.3901 820.83 80.8101C802.61 71.4301 789.09 68.11 779.43 68.11Z" fill="#638889"/>
<path d="M92.0596 75.32C76.0096 75.32 67.4697 73.32 62.5797 68.43C57.6897 63.54 55.6896 42.54 55.6896 26.49C55.6896 24.43 54.0196 22.75 51.9496 22.75C49.8796 22.75 48.2097 24.42 48.2097 26.49C48.2097 42.54 46.2096 63.54 41.3196 68.43C36.4296 73.32 27.8797 75.32 11.8397 75.32C9.77966 75.32 8.09961 76.99 8.09961 79.06C8.09961 81.13 9.76966 82.8 11.8397 82.8C27.8897 82.8 36.4296 84.8 41.3196 89.69C46.2096 94.58 48.2097 115.58 48.2097 131.63C48.2097 133.69 49.8796 135.37 51.9496 135.37C54.0196 135.37 55.6896 133.7 55.6896 131.63C55.6896 115.58 57.6897 94.58 62.5797 89.69C67.4697 84.8 76.0196 82.8 92.0596 82.8C94.1196 82.8 95.7996 81.13 95.7996 79.06C95.7996 76.99 94.1296 75.32 92.0596 75.32Z" fill="white"/>
<path d="M51.9498 143.37C45.4798 143.37 40.2098 138.1 40.2098 131.63C40.2098 112.12 37.5298 98.05 35.5598 95.25C32.3998 92.21 24.8498 90.8 11.8298 90.8C5.35983 90.8 0.0898438 85.53 0.0898438 79.06C0.0898438 72.59 5.35983 67.32 11.8298 67.32C24.8398 67.32 32.3898 65.9 35.5598 62.87C37.5198 60.07 40.2098 46 40.2098 26.49C40.2098 20.02 45.4798 14.75 51.9498 14.75C58.4198 14.75 63.6898 20.02 63.6898 26.49C63.6898 46 66.3698 60.07 68.3398 62.87C71.4998 65.91 79.0498 67.32 92.0698 67.32C98.5398 67.32 103.81 72.59 103.81 79.06C103.81 85.53 98.5398 90.8 92.0698 90.8C79.0598 90.8 71.5098 92.22 68.3398 95.25C66.3798 98.05 63.6898 112.12 63.6898 131.63C63.6898 138.1 58.4198 143.37 51.9498 143.37ZM39.7898 79.06C42.6098 80.38 44.9598 82.02 46.9798 84.03C48.9998 86.04 50.6898 89.43 51.9498 93.4C53.2098 89.43 54.8298 86.12 56.9198 84.03C58.9298 82.02 61.2798 80.37 64.1098 79.06C61.2898 77.74 58.9398 76.1 56.9198 74.09C54.8998 72.08 53.2098 68.69 51.9498 64.72C50.6898 68.69 49.0698 72 46.9798 74.09C44.9698 76.1 42.6198 77.75 39.7898 79.06Z" fill="#638889"/>
<path d="M92.0596 75.32C76.0096 75.32 67.4697 73.32 62.5797 68.43C57.6897 63.54 55.6896 42.54 55.6896 26.49C55.6896 24.43 54.0196 22.75 51.9496 22.75C49.8796 22.75 48.2097 24.42 48.2097 26.49C48.2097 42.54 46.2096 63.54 41.3196 68.43C36.4296 73.32 27.8797 75.32 11.8397 75.32C9.77966 75.32 8.09961 76.99 8.09961 79.06C8.09961 81.13 9.76966 82.8 11.8397 82.8C27.8897 82.8 36.4296 84.8 41.3196 89.69C46.2096 94.58 48.2097 115.58 48.2097 131.63C48.2097 133.69 49.8796 135.37 51.9496 135.37C54.0196 135.37 55.6896 133.7 55.6896 131.63C55.6896 115.58 57.6897 94.58 62.5797 89.69C67.4697 84.8 76.0196 82.8 92.0596 82.8C94.1196 82.8 95.7996 81.13 95.7996 79.06C95.7996 76.99 94.1296 75.32 92.0596 75.32Z" fill="white"/>
<path d="M93.5502 313.53C82.6902 313.53 76.9202 312.18 73.6002 308.87C70.2902 305.56 68.9402 291.35 68.9402 280.5C68.9402 279.1 67.8102 277.97 66.4102 277.97C65.0102 277.97 63.8802 279.1 63.8802 280.5C63.8802 291.36 62.5302 305.56 59.2202 308.87C55.9102 312.18 50.1303 313.53 39.2703 313.53C37.8703 313.53 36.7402 314.66 36.7402 316.06C36.7402 317.46 37.8703 318.59 39.2703 318.59C50.1303 318.59 55.9002 319.94 59.2202 323.25C62.5302 326.56 63.8802 340.77 63.8802 351.62C63.8802 353.02 65.0102 354.15 66.4102 354.15C67.8102 354.15 68.9402 353.02 68.9402 351.62C68.9402 340.76 70.2902 326.56 73.6002 323.25C76.9102 319.94 82.6902 318.59 93.5502 318.59C94.9502 318.59 96.0803 317.46 96.0803 316.06C96.0803 314.66 94.9502 313.53 93.5502 313.53Z" fill="white"/>
<path d="M66.4102 362.16C60.6002 362.16 55.8802 357.44 55.8802 351.63C55.8802 340.02 54.4103 331.1 53.2703 328.66C51.9403 327.66 48.3903 326.59 39.2703 326.59C33.4603 326.59 28.7402 321.87 28.7402 316.06C28.7402 310.25 33.4603 305.53 39.2703 305.53C48.3903 305.53 51.9403 304.46 53.2703 303.46C54.4103 301.02 55.8802 292.1 55.8802 280.49C55.8802 274.68 60.6002 269.96 66.4102 269.96C72.2202 269.96 76.9402 274.68 76.9402 280.49C76.9402 292.1 78.4102 301.02 79.5502 303.46C80.8802 304.46 84.4302 305.53 93.5502 305.53C99.3602 305.53 104.08 310.25 104.08 316.06C104.08 321.87 99.3602 326.59 93.5502 326.59C84.4302 326.59 80.8802 327.66 79.5502 328.66C78.4102 331.1 76.9402 340.02 76.9402 351.63C76.9402 357.44 72.2202 362.16 66.4102 362.16ZM63.1302 316.06C63.7402 316.53 64.3202 317.04 64.8802 317.59C65.4302 318.14 65.9402 318.79 66.4102 319.51C66.8802 318.79 67.3902 318.14 67.9402 317.59C68.4902 317.04 69.0802 316.53 69.6902 316.06C69.0802 315.59 68.5002 315.08 67.9402 314.53C67.3902 313.98 66.8802 313.33 66.4102 312.61C65.9402 313.33 65.4302 313.98 64.8802 314.53C64.3302 315.08 63.7402 315.59 63.1302 316.06Z" fill="#638889"/>
<path d="M93.5502 313.53C82.6902 313.53 76.9202 312.18 73.6002 308.87C70.2902 305.56 68.9402 291.35 68.9402 280.5C68.9402 279.1 67.8102 277.97 66.4102 277.97C65.0102 277.97 63.8802 279.1 63.8802 280.5C63.8802 291.36 62.5302 305.56 59.2202 308.87C55.9102 312.18 50.1303 313.53 39.2703 313.53C37.8703 313.53 36.7402 314.66 36.7402 316.06C36.7402 317.46 37.8703 318.59 39.2703 318.59C50.1303 318.59 55.9002 319.94 59.2202 323.25C62.5302 326.56 63.8802 340.77 63.8802 351.62C63.8802 353.02 65.0102 354.15 66.4102 354.15C67.8102 354.15 68.9402 353.02 68.9402 351.62C68.9402 340.76 70.2902 326.56 73.6002 323.25C76.9102 319.94 82.6902 318.59 93.5502 318.59C94.9502 318.59 96.0803 317.46 96.0803 316.06C96.0803 314.66 94.9502 313.53 93.5502 313.53Z" fill="white"/>
<path d="M360.02 401.13C357.61 393.07 352.52 386.78 346.03 381.64C330.66 369.45 313.07 365.71 293.92 368.43C282.57 370.04 271.83 373.69 261.46 378.5C261.15 378.64 260.82 378.75 260.46 378.89C260.68 374.85 258.64 372.9 254.66 373.26C253.99 373.32 253.33 373.53 252.66 373.53C252.28 373.53 251.7 373.38 251.54 373.1C250.13 370.61 248.56 368.18 247.47 365.55C242.34 353.22 240.1 340.22 239.37 326.98C239.01 320.56 239.42 314.1 239.57 307.66C239.62 305.58 239.93 303.5 240.13 301.33C242.17 301.45 244.07 301.54 245.97 301.66C251.72 302.03 257.48 302.41 263.23 302.8C267.52 303.09 271.8 303.4 276.09 303.67C278.11 303.8 280.21 304.21 282.14 303.84C286.58 302.99 291.01 301.94 295.32 300.6C308.26 296.56 321.14 292.35 334.05 288.2C335.02 287.89 335.95 287.35 336.94 287.21C338.74 286.95 339.88 285.88 339.87 284.08C339.87 279.19 339.91 274.29 339.82 269.4C339.45 248.38 339.04 227.36 338.63 206.35C338.33 190.98 338.01 175.62 337.71 160.25C337.51 149.86 337.35 139.47 337.15 129.08C336.79 110.93 336.4 92.7801 336.05 74.6301C335.78 60.9401 335.57 47.2401 335.3 33.5501C335.27 32.0801 335.11 30.6 334.83 29.17C334.09 25.37 332.21 22.4201 328.32 21.1901C311.65 15.8801 294.98 10.61 278.31 5.29004C276.3 4.65004 274.34 4.26006 272.16 4.37006C265.72 4.71006 259.27 4.75007 252.82 4.88007C231.92 5.28007 211.03 5.67007 190.13 6.07007C165.09 6.54007 140.06 7.01005 115.02 7.48005C114.54 7.48005 114.06 7.48004 113.59 7.41004C105.53 6.32004 98.0501 11.0901 95.9901 18.9601C95.3101 21.5701 95.1701 24.3901 95.1801 27.1101C95.2201 37.9401 95.3901 48.77 95.5401 59.6C95.8301 80.58 96.1401 101.56 96.4301 122.54C96.6401 137.55 96.8301 152.56 97.0601 167.57C97.0701 168.44 96.7601 168.94 96.1101 169.45C89.7001 174.4 83.7201 179.83 78.4301 185.98C73.5401 191.65 69.3001 197.74 66.7101 204.83C64.9601 209.61 64.1001 214.52 65.2401 219.59C66.7501 226.31 71.0301 230.78 77.0301 233.76C82.5801 236.51 88.5401 237.61 94.6801 237.84C95.8001 237.88 96.2701 238.1 96.2401 239.38C96.1401 243.36 96.1601 247.34 96.2201 251.32C96.2901 256.11 98.2401 259.68 103 261.32C103.37 261.45 103.66 261.76 104.03 261.91C104.79 262.2 105.56 262.55 106.36 262.67C107.48 262.85 108.63 262.84 109.84 262.92C109.84 263.5 109.84 263.93 109.84 264.37C109.94 272.05 110.03 279.74 110.16 287.42C110.18 288.52 110.35 289.64 110.62 290.71C110.98 292.13 111.99 292.92 113.46 293.05C114.81 293.17 116.16 293.24 117.51 293.34C124.26 293.8 131 294.25 137.75 294.71C142.39 295.02 147.04 295.31 151.68 295.66C152.15 295.7 152.76 296.02 153.03 296.4C154.5 298.43 156.01 300.45 157.27 302.61C163.72 313.67 168.83 325.36 173.36 337.32C174.24 339.65 175.12 341.98 176.04 344.42C175.66 344.4 175.42 344.41 175.2 344.38C171.94 343.89 169.34 345.39 168.13 348.51C167.37 350.45 167.24 352.46 167.53 354.5C167.69 355.59 167.92 356.66 168.13 357.85C165.81 357.01 163.64 356.14 161.43 355.42C153.26 352.75 144.84 351.4 136.3 350.62C128.46 349.9 120.64 349.99 112.83 350.92C97.0901 352.78 84.0901 359.8 73.8401 371.84C66.7201 380.21 61.5401 389.55 60.5501 400.74C59.8401 408.73 62.1101 415.78 67.7201 421.61C71.5201 425.55 76.3801 427.65 81.5601 428.98C94.2901 432.25 107.29 433.67 120.38 434.19C126.94 434.45 133.52 434.35 140.08 434.19C145.8 434.04 151.55 433.84 157.23 433.19C166.95 432.08 176.58 430.35 186.04 427.81C188.76 427.08 191.51 426.44 194.22 425.63C194.88 425.43 195.32 425.38 195.95 425.72C198.31 427.03 200.72 428.25 203.12 429.5C203.86 429.88 204.73 430.1 205.36 430.61C208.05 432.79 211.2 434.03 214.46 434.93C226.29 438.2 238.35 440.31 250.53 441.61C257.21 442.32 263.92 442.72 270.63 443.12C281.45 443.76 292.28 443.57 303.08 442.79C312.4 442.12 321.68 441.02 330.88 439.3C333.91 438.74 337.01 438.52 340 437.79C346.08 436.31 351.58 433.68 355.4 428.46C361.47 420.16 362.96 410.98 360.02 401.17V401.13ZM195.52 298.42C197.96 298.58 200.18 298.68 202.38 298.91C202.7 298.94 203.14 299.55 203.21 299.95C204.12 304.95 205.07 309.96 205.82 314.99C206.55 319.86 207.18 324.76 207.64 329.66C207.99 333.45 208.01 337.27 207.98 341.1C200.62 327.88 197.35 313.5 195.51 298.42H195.52Z" fill="#638889"/>
<path d="M283.94 447.09C279.35 447.09 274.86 446.96 270.42 446.7C264.15 446.33 257.05 445.92 250.15 445.18C236.93 443.77 224.94 441.55 213.49 438.39C210.72 437.63 206.63 436.28 203.07 433.4C203.05 433.4 202.77 433.28 202.57 433.2C202.19 433.04 201.8 432.88 201.44 432.69L200.22 432.06C198.44 431.14 196.61 430.19 194.8 429.21C193.13 429.69 191.46 430.12 189.83 430.54C188.88 430.78 187.93 431.03 186.98 431.28C177.78 433.75 167.9 435.59 157.64 436.76C151.61 437.45 145.46 437.65 140.17 437.78C133.81 437.94 127 438.06 120.23 437.78C105.23 437.18 92.2797 435.44 80.6497 432.46C73.8497 430.71 68.9097 428.06 65.0997 424.09C58.8497 417.61 56.0997 409.63 56.9197 400.37C57.8697 389.62 62.4997 379.5 71.0597 369.43C81.9097 356.67 95.8197 349.21 112.4 347.25C120.38 346.31 128.53 346.2 136.63 346.94C146.79 347.87 155.03 349.44 162.56 351.9C162.96 352.03 163.36 352.16 163.75 352.3C163.77 350.48 164.1 348.74 164.74 347.12C165.94 344.05 168.15 341.94 170.92 341.06C170.6 340.22 170.29 339.38 169.97 338.55C164.8 324.89 159.77 314.04 154.14 304.39C153.15 302.68 151.96 301.05 150.7 299.32L150.6 299.18C147.51 298.95 144.41 298.75 141.31 298.54L116.18 296.85C115.17 296.79 114.16 296.72 113.15 296.63C110.1 296.35 107.84 294.46 107.11 291.55C106.75 290.13 106.56 288.74 106.54 287.43C106.43 281.49 106.36 275.56 106.28 269.62L106.24 266.28C106.1 266.26 105.95 266.24 105.81 266.22C104.75 266.05 103.83 265.69 103.09 265.4L102.73 265.26C102.2 265.05 101.8 264.79 101.55 264.62C97.4597 263.13 92.7097 259.62 92.5897 251.33C92.5297 247.53 92.5297 244.29 92.5697 241.33C86.0397 240.88 80.4197 239.45 75.4297 236.98C67.9697 233.28 63.3497 227.69 61.6997 220.35C60.5397 215.17 61.0597 209.68 63.2997 203.55C65.7197 196.92 69.6597 190.57 75.6797 183.57C80.6897 177.75 86.4997 172.29 93.4197 166.9C93.2697 157.12 93.1397 147.35 93.0097 137.57L92.3897 93.5999C92.2297 82.2699 92.0697 70.9499 91.9097 59.6199L91.8297 54.1099C91.6997 45.2599 91.5697 36.1 91.5497 27.09C91.5497 24.55 91.6397 21.21 92.4697 18.01C94.9697 8.39996 104.05 2.41998 114.08 3.77998C114.32 3.80998 114.61 3.82996 114.95 3.81996C139.98 3.34996 165.02 2.87993 190.05 2.40993L206.64 2.09993C222 1.80993 237.37 1.51993 252.73 1.21993C254.15 1.18993 255.57 1.16998 257 1.14998C261.91 1.06998 267 0.989926 271.95 0.719926C274.35 0.589926 276.66 0.929943 279.4 1.79994C288.38 4.65994 297.36 7.51995 306.35 10.37C314.04 12.81 321.72 15.25 329.41 17.7C332.75 18.76 337.03 21.5 338.38 28.45C338.7 30.1 338.88 31.79 338.92 33.46C339.06 40.6 339.19 47.74 339.31 54.88C339.42 61.43 339.54 67.9899 339.67 74.5399C339.86 84.2899 340.06 94.0399 340.26 103.79C340.43 112.19 340.61 120.59 340.77 128.99C340.88 134.45 340.97 139.91 341.07 145.36C341.16 150.29 341.24 155.22 341.33 160.16C341.49 168.16 341.65 176.16 341.81 184.16C341.96 191.52 342.11 198.89 342.25 206.25L342.29 208.28C342.69 228.62 343.08 248.96 343.44 269.31C343.5 272.93 343.5 276.59 343.49 280.13V284.06C343.49 287.63 341.11 290.27 337.43 290.8C337.26 290.82 336.81 291.01 336.48 291.15C336.04 291.33 335.6 291.51 335.15 291.66C331.8 292.74 328.46 293.82 325.12 294.9C315.72 297.94 305.99 301.08 296.39 304.08C292.27 305.36 287.83 306.46 282.81 307.42C280.87 307.79 279 307.6 277.34 307.44C276.84 307.39 276.34 307.34 275.84 307.31C273.19 307.14 270.54 306.96 267.89 306.78C266.25 306.67 264.61 306.55 262.97 306.44C257.22 306.06 251.47 305.68 245.72 305.3C244.94 305.25 244.16 305.2 243.36 305.16C243.27 306.05 243.2 306.91 243.18 307.74C243.14 309.39 243.09 311.05 243.03 312.7C242.87 317.35 242.71 322.15 242.97 326.78C243.77 341.18 246.33 353.41 250.8 364.15C251.54 365.92 252.55 367.65 253.62 369.48L253.75 369.71C253.93 369.68 254.12 369.66 254.3 369.64C258.13 369.29 260.4 370.62 261.63 371.8C262.12 372.27 262.64 372.92 263.08 373.76C273.65 369.14 283.59 366.21 293.38 364.82C314.36 361.85 332.83 366.55 348.27 378.79C356.06 384.97 361.04 391.94 363.48 400.09C366.78 411.11 365.04 421.37 358.31 430.57C354.44 435.86 348.72 439.37 340.83 441.29C338.87 441.77 336.93 442.03 335.05 442.29C333.82 442.46 332.66 442.62 331.51 442.83C322.63 444.48 313.4 445.64 303.31 446.37C296.58 446.85 290.15 447.1 283.91 447.1L283.94 447.09ZM195.08 421.79C195.87 421.79 196.75 421.97 197.7 422.49C199.62 423.55 201.62 424.59 203.56 425.59L204.79 426.22C204.96 426.31 205.15 426.38 205.33 426.46C205.96 426.72 206.82 427.07 207.64 427.73C209.57 429.29 211.97 430.41 215.42 431.37C226.48 434.42 238.09 436.57 250.91 437.94C257.64 438.66 264.65 439.07 270.84 439.43C281 440.03 291.46 439.92 302.82 439.1C312.64 438.39 321.6 437.27 330.21 435.67C331.52 435.43 332.82 435.25 334.08 435.07C335.86 434.82 337.54 434.59 339.13 434.2C345.37 432.68 349.6 430.16 352.45 426.26C357.84 418.89 359.17 411.01 356.52 402.17C354.52 395.49 350.35 389.71 343.76 384.48C329.76 373.37 313.62 369.3 294.42 372.02C284.37 373.44 274.08 376.64 262.98 381.79C262.69 381.93 262.38 382.04 262.05 382.17L256.51 384.32L256.82 378.69C256.88 377.55 256.66 377.1 256.6 377.04C256.54 376.98 256.08 376.79 254.99 376.89C254.82 376.91 254.65 376.94 254.48 376.97C253.99 377.06 253.39 377.17 252.68 377.18H252.63C251.26 377.18 249.32 376.59 248.37 374.92C248.03 374.33 247.7 373.75 247.36 373.17C246.21 371.21 245.03 369.19 244.1 366.96C239.31 355.44 236.57 342.43 235.73 327.19C235.46 322.25 235.62 317.28 235.78 312.47C235.83 310.84 235.89 309.21 235.93 307.58C235.97 305.99 236.14 304.45 236.3 302.96C236.37 302.31 236.44 301.66 236.51 301L236.84 297.51L242.22 297.81C243.58 297.88 244.9 297.96 246.21 298.04C251.97 298.41 257.72 298.79 263.48 299.18C265.13 299.29 266.77 299.41 268.42 299.52C271.05 299.7 273.68 299.89 276.32 300.05C276.91 300.09 277.5 300.14 278.09 300.2C279.36 300.33 280.56 300.45 281.46 300.27C286.21 299.36 290.39 298.33 294.24 297.13C303.81 294.15 313.51 291.01 322.9 287.97C326.24 286.89 329.59 285.81 332.93 284.73C333.19 284.65 333.45 284.54 333.7 284.43C334.38 284.15 335.23 283.8 336.22 283.63V280.13C336.23 276.62 336.24 273 336.17 269.45C335.81 249.11 335.41 228.77 335.02 208.44L334.98 206.41C334.84 199.05 334.69 191.69 334.54 184.33C334.38 176.33 334.22 168.32 334.06 160.32C333.96 155.38 333.88 150.45 333.79 145.51C333.7 140.06 333.6 134.61 333.5 129.15C333.33 120.75 333.16 112.36 332.99 103.96C332.79 94.21 332.59 84.45 332.4 74.7C332.27 68.14 332.16 61.58 332.04 55.03C331.91 47.89 331.79 40.7599 331.65 33.6199C331.62 32.3699 331.49 31.0999 331.25 29.8599C330.53 26.1699 328.8 25.15 327.21 24.65C319.53 22.2 311.84 19.76 304.16 17.32C295.17 14.47 286.19 11.61 277.2 8.74996C275.3 8.14996 273.85 7.91996 272.34 7.99996C267.25 8.26996 262.1 8.34996 257.13 8.43996C255.71 8.45996 254.3 8.48996 252.88 8.50996C237.51 8.80996 222.15 9.09997 206.78 9.38997L190.19 9.69997C165.15 10.17 140.12 10.6399 115.08 11.1099C114.37 11.1199 113.72 11.09 113.1 11C106.79 10.15 101.07 13.8699 99.5097 19.8599C98.8897 22.2499 98.8097 24.97 98.8197 27.08C98.8497 36.05 98.9797 45.19 99.0997 54.02L99.1797 59.53C99.3397 70.85 99.4997 82.18 99.6597 93.5L100.28 137.48C100.42 147.48 100.55 157.49 100.7 167.49C100.73 169.45 99.9297 171.07 98.3397 172.3C91.5997 177.5 85.9997 182.74 81.1897 188.32C75.7497 194.63 72.2397 200.27 70.1297 206.05C68.3597 210.89 67.9397 214.93 68.7897 218.76C69.9497 223.92 73.1697 227.75 78.6497 230.46C83.1997 232.71 88.4897 233.93 94.8197 234.16C99.6297 234.34 99.9097 238.23 99.8797 239.42C99.7997 242.86 99.7897 246.61 99.8597 251.22C99.9097 254.83 101.21 256.81 104.19 257.84C104.82 258.06 105.29 258.37 105.57 258.56L105.77 258.64C106.21 258.82 106.67 259 106.93 259.04C107.51 259.13 108.16 259.16 108.92 259.19C109.3 259.21 109.68 259.22 110.07 259.25L113.48 259.47V263.42C113.48 263.73 113.48 264.01 113.48 264.28L113.55 269.54C113.62 275.46 113.7 281.39 113.81 287.31C113.82 287.96 113.91 288.66 114.07 289.4C114.96 289.48 115.8 289.53 116.64 289.58L141.78 291.27C145.18 291.49 148.57 291.72 151.96 291.98C153.51 292.1 155.09 292.98 155.98 294.22L156.58 295.05C157.88 296.85 159.23 298.7 160.41 300.72C166.25 310.73 171.45 321.93 176.76 335.97C177.37 337.59 177.98 339.21 178.61 340.87L181.4 348.27L175.59 347.99C175.22 347.98 174.94 347.96 174.66 347.92C173.08 347.68 172.11 348.25 171.52 349.78C171.04 351.01 170.91 352.37 171.14 353.93C171.24 354.62 171.37 355.31 171.51 356.04L172.85 363.39L166.89 361.22C166.14 360.95 165.4 360.67 164.68 360.4C163.17 359.83 161.74 359.3 160.31 358.83C153.31 356.55 145.58 355.08 135.98 354.2C128.38 353.51 120.74 353.6 113.27 354.49C98.5797 356.23 86.2397 362.85 76.6197 374.16C68.9597 383.16 65.0097 391.7 64.1797 401.03C63.5397 408.19 65.5597 414.09 70.3497 419.05C73.1897 422 77.0397 424.02 82.4797 425.42C93.5997 428.28 106.05 429.95 120.54 430.52C127.09 430.78 133.77 430.67 140 430.51C145.13 430.38 151.09 430.18 156.83 429.53C166.74 428.4 176.26 426.63 185.11 424.25C186.09 423.99 187.06 423.74 188.04 423.49C189.82 423.03 191.51 422.6 193.19 422.1C193.74 421.94 194.38 421.79 195.09 421.79H195.08ZM105.36 258.47L105.4 258.49C105.4 258.49 105.37 258.48 105.36 258.47ZM211.53 354.92L204.82 342.86C198.15 330.88 194.17 317.31 191.92 298.86L191.39 294.51L197.52 294.9C199.33 295.01 201.03 295.11 202.77 295.29C204.96 295.52 206.49 297.53 206.81 299.3L207.2 301.42C207.98 305.67 208.79 310.07 209.44 314.45C210.25 319.88 210.86 324.75 211.29 329.32C211.67 333.4 211.67 337.56 211.65 341.13L211.55 354.94L211.53 354.92ZM199.71 302.32C200.42 307.26 201.28 311.82 202.31 316.06C202.28 315.88 202.26 315.7 202.23 315.51C201.59 311.25 200.8 306.91 200.03 302.72L199.96 302.34C199.88 302.34 199.8 302.33 199.71 302.32Z" fill="#638889"/>
<path d="M168.13 357.8C167.91 356.61 167.68 355.53 167.53 354.45C167.24 352.41 167.37 350.4 168.13 348.46C169.35 345.35 171.95 343.84 175.2 344.33C175.43 344.36 175.66 344.36 176.04 344.37C175.12 341.93 174.25 339.6 173.36 337.27C168.83 325.31 163.72 313.62 157.27 302.56C156.01 300.4 154.5 298.38 153.03 296.35C152.75 295.97 152.15 295.65 151.68 295.61C147.04 295.25 142.4 294.97 137.75 294.66C131 294.21 124.26 293.75 117.51 293.29C116.16 293.2 114.81 293.13 113.46 293C112 292.87 110.98 292.08 110.62 290.66C110.35 289.59 110.18 288.47 110.16 287.37C110.02 279.69 109.94 272 109.84 264.32C109.84 263.89 109.84 263.45 109.84 262.87C108.63 262.79 107.48 262.8 106.36 262.62C105.56 262.49 104.79 262.15 104.03 261.86C103.67 261.72 103.37 261.4 103 261.27C98.2301 259.63 96.2901 256.06 96.2201 251.27C96.1601 247.29 96.1501 243.31 96.2401 239.33C96.2701 238.05 95.8001 237.83 94.6801 237.79C88.5401 237.56 82.5801 236.46 77.0301 233.71C71.0301 230.74 66.7501 226.26 65.2401 219.54C64.1001 214.47 64.9601 209.57 66.7101 204.78C69.3001 197.68 73.5501 191.6 78.4301 185.93C83.7201 179.78 89.7001 174.35 96.1101 169.4C96.7601 168.9 97.0701 168.39 97.0601 167.52C96.8301 152.51 96.6401 137.5 96.4301 122.49C96.1401 101.51 95.8301 80.5299 95.5401 59.5499C95.3901 48.7199 95.2101 37.8899 95.1801 27.0599C95.1801 24.3399 95.3101 21.5199 95.9901 18.9099C98.0401 11.0399 105.52 6.26992 113.59 7.35992C114.06 7.41992 114.54 7.43993 115.02 7.42993C140.06 6.95993 165.09 6.48996 190.13 6.01996C211.03 5.62996 231.92 5.23995 252.82 4.82995C259.27 4.70995 265.72 4.65994 272.16 4.31994C274.35 4.19994 276.3 4.58993 278.31 5.23993C294.97 10.5499 311.65 15.8299 328.32 21.1399C332.2 22.3799 334.08 25.3299 334.83 29.1199C335.11 30.5599 335.27 32.0399 335.3 33.4999C335.57 47.1899 335.78 60.89 336.05 74.58C336.4 92.73 336.8 110.88 337.15 129.03C337.35 139.42 337.51 149.81 337.71 160.2C338.01 175.57 338.33 190.93 338.63 206.3C339.04 227.32 339.45 248.34 339.82 269.35C339.91 274.24 339.86 279.14 339.87 284.03C339.87 285.83 338.73 286.91 336.94 287.16C335.95 287.3 335.02 287.84 334.05 288.15C321.15 292.3 308.26 296.52 295.32 300.55C291.01 301.9 286.58 302.94 282.14 303.79C280.2 304.16 278.11 303.75 276.09 303.62C271.8 303.35 267.52 303.03 263.23 302.75C257.48 302.37 251.72 301.99 245.97 301.61C244.07 301.49 242.17 301.39 240.13 301.28C239.93 303.44 239.61 305.52 239.57 307.61C239.42 314.05 239.01 320.52 239.37 326.93C240.1 340.17 242.34 353.17 247.47 365.5C248.56 368.13 250.13 370.56 251.54 373.05C251.7 373.33 252.28 373.48 252.66 373.48C253.33 373.48 253.99 373.27 254.66 373.21C258.64 372.85 260.68 374.8 260.46 378.84C260.82 378.7 261.15 378.59 261.46 378.45C271.83 373.64 282.57 369.99 293.92 368.38C313.07 365.67 330.66 369.4 346.03 381.59C352.52 386.73 357.6 393.03 360.02 401.08C362.96 410.88 361.47 420.06 355.4 428.37C351.58 433.59 346.08 436.22 340 437.7C337.02 438.43 333.91 438.64 330.88 439.21C321.68 440.92 312.4 442.02 303.08 442.7C292.28 443.48 281.45 443.67 270.63 443.03C263.92 442.64 257.21 442.24 250.53 441.52C238.34 440.22 226.28 438.11 214.46 434.84C211.2 433.94 208.05 432.7 205.36 430.53C204.73 430.02 203.86 429.81 203.12 429.42C200.72 428.18 198.31 426.95 195.95 425.64C195.32 425.29 194.89 425.35 194.22 425.55C191.52 426.35 188.77 427 186.04 427.73C176.57 430.27 166.95 432 157.23 433.11C151.55 433.76 145.8 433.96 140.08 434.11C133.52 434.28 126.94 434.38 120.38 434.11C107.29 433.59 94.2901 432.17 81.5601 428.9C76.3801 427.57 71.5201 425.48 67.7201 421.53C62.1101 415.7 59.8401 408.65 60.5501 400.66C61.5401 389.47 66.7201 380.13 73.8401 371.76C84.0901 359.71 97.1001 352.7 112.83 350.84C120.64 349.92 128.46 349.83 136.3 350.54C144.84 351.32 153.26 352.67 161.43 355.34C163.65 356.06 165.82 356.93 168.13 357.77V357.8ZM132.62 190.17C131.63 189.45 130.78 188.86 129.98 188.23C128.86 187.35 128.56 185.96 129.18 184.82C129.8 183.68 131.16 183.16 132.48 183.69C133.28 184.01 134.12 184.42 134.73 185.01C137.07 187.27 139.56 189.43 141.57 191.97C145.64 197.12 149.37 202.54 153.35 207.77C159.74 216.16 166.07 224.6 172.72 232.79C177.89 239.15 183.96 244.63 191.02 248.89C199.08 253.76 207.75 255.71 217.11 254.09C223.83 252.93 230.1 250.41 236.22 247.51C248.84 241.53 260.61 234.11 272.1 226.21C280.1 220.71 288.18 215.32 296.92 211.02C299.1 209.95 300.91 210.23 301.76 211.79C302.65 213.42 301.87 215.13 299.69 216.31C297.31 217.59 294.95 218.93 292.52 220.12C290.94 220.89 290.75 222.21 290.68 223.68C290.64 224.43 291.08 224.59 291.67 224.42C292.2 224.27 292.74 224.08 293.22 223.82C294.56 223.11 295.84 222.31 297.2 221.65C298.77 220.88 300.39 221.33 301.19 222.66C301.99 224 301.66 225.68 300.21 226.65C297.89 228.2 295.44 229.54 292.66 230.1C289.02 230.83 286.26 229.1 285.33 225.54C285.27 225.29 285.14 225.07 285.05 224.83C284.93 224.83 284.81 224.82 284.69 224.81C284.61 225.3 284.45 225.79 284.46 226.27C284.6 235.19 284.81 244.1 284.9 253.02C284.93 256.09 284.4 259.09 283.35 262.02C282.09 265.54 279.58 267.44 276.04 268.1C274.91 268.31 273.75 268.4 272.6 268.39C265.36 268.33 258.11 268.26 250.87 268.12C246.29 268.03 241.72 267.8 237.15 267.62C227.77 267.25 218.38 266.86 209 266.51C201.36 266.22 193.73 265.99 186.09 265.72C175.83 265.35 165.57 264.96 155.31 264.57C150.34 264.38 145.35 264.37 140.4 263.93C135.89 263.52 132.06 264.82 128.68 267.6C123.67 271.72 120.71 277.14 119.15 283.36C118.83 284.65 118.63 285.97 118.36 287.4C172.24 290.91 225.9 294.4 279.7 297.91C279.7 297.35 279.7 296.97 279.7 296.58C279.49 288.74 279.27 280.9 279.07 273.06C279.05 272.23 279.05 271.38 279.22 270.57C279.53 269.17 280.73 268.31 282.09 268.33C283.45 268.36 284.59 269.27 284.89 270.67C285.03 271.33 285.08 272.01 285.1 272.69C285.22 277.39 285.3 282.08 285.42 286.78C285.51 290.28 285.63 293.77 285.74 297.49C301.97 292.27 318.11 287.08 334.33 281.86C334.33 281.69 334.33 281.46 334.33 281.22C334.15 276.89 333.9 272.55 333.81 268.22C333.5 253.25 333.25 238.28 332.97 223.32C332.8 214.04 332.64 204.77 332.46 195.49C332.09 176.54 331.68 157.59 331.32 138.64C331.05 124.35 330.83 110.06 330.56 95.7599C330.18 75.8199 329.81 55.8699 329.37 35.9299C329.31 33.3099 328.88 30.71 327.76 28.28C327.36 27.41 326.79 26.94 325.88 26.65C313.14 22.63 300.41 18.57 287.68 14.53C285.37 13.8 283.07 13.0799 280.59 12.2899C280.7 13.7099 280.86 14.9699 280.89 16.2299C281.13 26.9399 281.34 37.6499 281.55 48.3499C281.87 64.8299 282.2 81.3099 282.51 97.7899C282.78 112.44 283.02 127.09 283.29 141.74C283.39 147.07 283.56 152.41 283.67 157.74C283.74 160.96 283.77 164.19 283.76 167.42C283.76 169.16 282.63 170.4 281.07 170.53C279.53 170.66 278.22 169.59 277.89 167.9C277.83 167.59 277.81 167.27 277.81 166.95C277.72 162.57 277.64 158.19 277.56 153.81C277.39 144.18 277.24 134.54 277.04 124.91C276.59 102.62 276.12 80.33 275.67 58.03C275.43 46.29 275.2 34.5399 274.99 22.7999C274.95 20.3299 275.02 17.87 274.99 15.4C274.98 14.27 274.94 13.1199 274.74 12.0099C274.53 10.8299 273.71 10.3799 272.47 10.4199C267.18 10.5899 261.88 10.6999 256.59 10.7999C239.63 11.1299 222.68 11.4599 205.72 11.7599C190.67 12.0299 175.63 12.27 160.58 12.53C155.56 12.62 150.55 12.7599 145.54 12.8599C134.55 13.0699 123.57 13.2799 112.58 13.4699C111.71 13.4899 110.82 13.2499 109.98 13.3799C104.62 14.2099 101.18 18.3 101.22 23.9C101.31 35.57 101.47 47.23 101.61 58.9C101.81 75.38 102.01 91.8699 102.22 108.35C102.51 130.77 102.83 153.18 103.13 175.6C103.22 182.09 103.29 188.58 103.41 195.07C103.41 195.47 103.72 196.15 103.99 196.21C105.14 196.47 106.33 196.55 107.45 196.69C108.1 193.35 108.63 190.1 109.37 186.89C111.43 178.02 115.01 169.92 121.55 163.35C121.78 163.12 121.99 162.75 121.98 162.45C121.87 157.68 121.69 152.9 121.6 148.13C121.24 128.38 120.92 108.64 120.57 88.89C120.47 83.24 120.2 77.5899 120.21 71.9299C120.23 65.9699 119.6 60.0099 120.32 54.0399C121.32 45.7899 126.58 40.0399 134.74 38.8199C137.35 38.4299 140.04 38.6399 142.7 38.5999C148.75 38.5299 154.8 38.4699 160.85 38.4099C184.46 38.1999 208.07 37.9699 231.68 37.7899C234.49 37.7699 237.32 37.8499 240.11 38.1399C244.61 38.5999 248.56 40.35 251.6 43.83C254.01 46.59 255.13 49.8399 254.98 53.4999C254.88 55.8699 254.68 58.2499 254.62 60.6199C254.57 62.4499 254.69 64.2799 254.71 66.1099C254.99 99.3199 255.27 132.53 255.54 165.74C255.55 167.21 255.54 168.67 255.54 170.21C263.72 171.06 268.35 176 271.05 183.25C271.83 182.85 272.48 182.55 273.09 182.19C276.2 180.34 279.29 178.45 282.41 176.62C284.05 175.66 285.75 176.01 286.62 177.4C287.5 178.79 287.07 180.44 285.52 181.55C285.26 181.73 284.99 181.91 284.71 182.06C280.78 184.16 276.86 186.28 272.91 188.33C272.31 188.64 272.18 188.94 272.16 189.59C272.09 191.57 272.09 193.59 271.72 195.52C270.62 201.19 267.73 205.45 261.86 207.1C259.36 207.8 256.84 207.84 254.3 207.27C253.93 207.19 253.33 207.3 253.1 207.56C248.62 212.57 242.92 213.84 236.6 212.7C234.72 212.36 232.99 211.2 231.19 210.42C230.36 211.36 229.48 212.64 228.34 213.6C223.54 217.61 218.11 217.8 212.5 215.75C207.75 214.01 204.04 210.8 201.23 206.67C197.1 200.58 193.06 194.42 189.17 188.18C184.86 181.28 180.53 174.38 175.13 168.3C166.65 158.74 156.2 154.33 143.37 157.84C132.5 160.81 123.96 166.85 118.97 177.27C116.29 182.86 114.51 188.75 113.39 194.84C113.28 195.44 113.23 196.05 113.14 196.72C120.21 196.17 126.42 193.64 132.61 190.21L132.62 190.17ZM234.54 301.95C232.08 302.07 229.78 302.2 227.48 302.31C221.69 302.59 216.41 304.34 211.66 307.68C210.98 308.15 210.74 308.63 210.89 309.46C211.34 311.84 211.75 314.23 212.13 316.63C213.92 328.07 214.69 339.56 213.75 351.12C213.08 359.37 211.53 367.48 208.23 375.08C205.42 381.56 202.01 387.78 198.79 394.08C196.82 397.94 194.74 401.76 193.82 406.05C192.3 413.1 194.06 418.07 200.41 421.4C202.94 422.73 205.56 423.9 208.12 425.17C208.83 425.52 209.51 425.94 210.19 426.34C211.1 426.89 211.94 427.61 212.91 427.98C214.87 428.73 216.88 429.4 218.92 429.91C239.88 435.08 261.18 437.41 282.75 437.36C289.19 437.34 295.65 437.23 302.08 436.77C308.86 436.29 315.62 435.48 322.36 434.6C327.68 433.91 332.99 433.08 338.24 432C351.2 429.35 355.32 419.39 355.45 410.22C355.53 404.2 353.38 398.92 349.88 394.16C344.63 387.01 337.62 382.06 329.58 378.55C316.52 372.85 303.02 372.39 289.24 375.3C279.74 377.31 270.73 380.79 261.87 384.65C258.59 386.08 255.37 387.65 252.12 389.14C250.18 390.03 248.69 389.33 247.99 387.34C247.32 385.45 247.74 383.92 249.26 382.64C250.12 381.92 250.93 381.15 251.77 380.4C251.26 380.32 250.88 380.42 250.53 380.59C248.06 381.77 245.56 382.91 243.13 384.18C240.74 385.44 238.42 386.84 236.07 388.18C235.66 388.42 235.24 388.66 234.81 388.86C233.28 389.59 231.76 389.24 231.02 388.01C230.25 386.72 230.68 385.15 232.2 384.24C236.59 381.59 241.02 379 245.43 376.38C245.69 376.23 245.94 376.05 246.05 375.98C244.47 372.78 242.76 369.76 241.46 366.57C240.14 363.34 239.05 360 238.14 356.63C235.48 346.77 233.86 336.75 233.32 326.54C233.01 320.64 233.11 314.77 233.8 308.9C234.07 306.62 234.31 304.33 234.58 301.94L234.54 301.95ZM190.17 420.54C190.13 420.36 190.14 420.27 190.1 420.21C186.9 415.11 186.71 409.66 188.15 404C189.5 398.66 192.02 393.82 194.74 389.1C201 378.22 205.99 366.9 207.43 354.27C207.55 353.24 207.66 352.35 206.63 351.66C206.27 351.42 206.1 350.88 205.89 350.46C205.35 349.4 204.91 348.29 204.32 347.26C196.52 333.66 192.04 319.03 190.55 303.45C190.43 302.2 190.31 300.96 190.18 299.66C189.81 299.68 189.58 299.68 189.35 299.71C181.21 300.99 174.65 304.64 170.57 312.11C169.98 313.19 169.98 313.94 170.49 315.01C176.81 328.54 181.94 342.53 186.65 356.69C187.29 358.61 186.59 360.24 184.96 360.85C183.31 361.47 181.77 360.61 180.92 358.69C180.21 357.1 179.6 355.41 178.6 354.01C177.65 352.69 176.31 351.64 175.04 350.58C174.35 350 173.66 350.18 173.56 351.23C173.48 352.05 173.38 352.9 173.48 353.71C173.85 356.71 175.08 359.39 177 361.68C178.78 363.81 180.79 365.75 182.67 367.81C183.23 368.42 183.79 369.07 184.15 369.8C184.66 370.84 184.49 371.93 183.67 372.8C182.84 373.69 181.78 374.01 180.63 373.52C179.99 373.24 179.36 372.84 178.84 372.38C177.77 371.42 176.73 370.43 175.77 369.37C173.68 367.04 171.19 365.25 168.28 364.19C163.84 362.58 159.38 360.96 154.83 359.72C147.14 357.62 139.24 356.67 131.28 356.24C123.66 355.84 116.07 356.13 108.6 357.67C91.2201 361.24 79.0301 371.64 70.8001 386.99C67.7201 392.74 65.8701 398.9 66.5701 405.56C67.2401 411.99 70.1401 417.15 75.8801 420.25C78.7501 421.79 81.9401 422.9 85.1201 423.66C97.1101 426.51 109.33 428 121.63 428.18C132.32 428.34 143.05 428.09 153.72 427.45C162.92 426.9 172 425.06 180.97 422.88C184.05 422.13 187.11 421.33 190.17 420.56V420.54ZM195.43 186.86C196.13 185.76 196.73 184.68 197.46 183.69C198.19 182.7 198.98 181.73 199.86 180.88C205.96 175.01 214.87 171.61 224.03 176.34C224.34 176.5 225 176.3 225.35 176.06C231.01 172.14 237.19 170.83 243.83 172.71C245.69 173.24 247.04 173.49 248.56 172.07C249.23 171.45 249.63 171.01 249.62 170.07C249.45 154.46 249.32 138.85 249.18 123.25C249.03 105.97 248.88 88.6899 248.74 71.4099C248.69 65.1199 248.51 58.8199 248.69 52.5399C248.77 49.7399 247.6 47.88 245.58 46.4C244.48 45.59 243.18 44.91 241.86 44.59C239.87 44.11 237.79 43.75 235.74 43.77C205.32 43.98 174.91 44.26 144.5 44.52C142.47 44.54 140.44 44.4699 138.42 44.4499C133.05 44.4199 128.19 46.5199 126.64 52.9399C126.24 54.5899 125.99 56.32 126 58.02C126.05 65.74 126.19 73.4699 126.33 81.1899C126.62 96.9499 126.94 112.72 127.23 128.48C127.41 138.07 127.56 147.67 127.73 157.26C127.73 157.52 127.77 157.79 127.81 158.24C131.65 155.83 135.56 153.92 139.74 152.61C143.95 151.29 148.25 150.46 152.71 150.52C152.39 150.22 152.05 150.03 151.72 149.84C147.84 147.5 143.95 145.16 140.09 142.79C139.49 142.42 138.92 141.93 138.5 141.38C137.77 140.43 137.78 139.38 138.45 138.38C139.09 137.43 140.3 137.03 141.41 137.44C141.96 137.64 142.47 137.98 142.98 138.28C152.91 144.28 163.25 149.47 174.28 153.13C185.92 157 197.75 158.06 209.75 154.89C212.69 154.11 215.55 153.07 218.46 152.15C218.38 151.76 218.36 151.61 218.32 151.46C217.62 147.94 217.62 144.42 218.49 140.93C218.91 139.24 220.14 138.33 221.56 138.55C223.06 138.79 223.9 140.06 223.74 141.86C223.72 142.1 223.66 142.33 223.63 142.57C222.85 148.13 223.92 153.17 227.79 157.44C228.54 158.27 229.3 159.09 229.94 159.99C230.81 161.21 230.66 162.74 229.71 163.72C228.72 164.74 227.16 164.89 225.89 164.02C225.34 163.64 224.85 163.15 224.42 162.64C223.08 161.03 221.77 159.38 220.38 157.66C205.77 163.76 190.75 164.22 175.28 159.7C183.55 167.88 189.44 177.39 195.42 186.87L195.43 186.86ZM97.2601 176.27C96.8101 176.56 96.6401 176.64 96.5001 176.76C90.4201 181.81 84.7401 187.27 79.9401 193.57C76.0101 198.73 72.6101 204.21 71.2501 210.67C70.0401 216.44 70.9101 221.7 75.6701 225.75C78.7201 228.34 82.3401 229.75 86.1701 230.63C95.0901 232.66 104.04 232.15 112.98 230.79C123.12 229.24 132.93 226.41 142.5 222.75C146.2 221.33 149.85 219.77 153.58 218.25C147.85 210.38 142.24 202.67 136.6 194.92C134.51 195.96 132.43 197.04 130.32 198.04C122.3 201.81 113.95 203.66 105.06 202.22C100.92 201.55 96.8801 200.53 93.1301 198.59C91.4101 197.7 90.8201 196.07 91.5901 194.63C92.3501 193.22 93.9101 192.91 95.6301 193.79C96.1701 194.06 96.7401 194.27 97.2601 194.5V176.27ZM157.03 222.89C156.36 223.28 155.77 223.7 155.12 223.99C138.36 231.41 121.08 236.88 102.62 237.82C101.91 237.86 101.65 238.09 101.68 238.82C101.86 243.15 101.98 247.49 102.19 251.82C102.25 253.15 102.58 254.56 103.94 255.14C105.53 255.82 107.21 256.52 108.91 256.7C112.23 257.05 115.58 257.06 118.92 257.18C126.4 257.45 133.87 257.7 141.35 257.98C152.92 258.42 164.49 258.88 176.06 259.33C184.25 259.64 192.44 259.95 200.63 260.24C201.76 260.28 202.9 260.24 204.03 260.24C203.9 260.07 203.76 260.04 203.62 260.02C197.52 258.9 191.89 256.58 186.68 253.23C178.24 247.81 171.32 240.75 165.03 233.04C162.31 229.71 159.71 226.3 157.03 222.89ZM278.71 229.39C278.57 229.34 278.43 229.29 278.29 229.24C277.87 229.52 277.44 229.78 277.03 230.07C267.51 236.59 257.89 242.96 247.68 248.38C236.87 254.12 225.91 259.48 213.17 260.64C213.6 260.7 213.74 260.74 213.89 260.74C223.16 261.07 232.42 261.4 241.69 261.74C247.14 261.94 252.58 262.15 258.03 262.39C260.28 262.49 262.53 262.78 264.78 262.85C266.53 262.9 268.28 262.76 270.03 262.68C271.42 262.62 272.81 262.56 274.2 262.43C276 262.26 277.27 261.47 277.89 259.59C278.85 256.7 278.97 253.74 278.95 250.76C278.92 246.22 278.79 241.69 278.73 237.15C278.7 234.57 278.73 231.98 278.73 229.4L278.71 229.39ZM229.34 195.66C229.54 187.23 223.2 180.41 215.54 180.15C211.45 180.01 208.09 181.77 205.01 184.25C201.81 186.83 200.15 190.08 200.6 194.24C200.67 194.85 200.79 195.55 201.13 196.03C203.41 199.24 205.65 202.47 208.11 205.54C209.98 207.87 212.46 209.57 215.36 210.36C221.58 212.05 225.16 209.97 227.12 204.95C228.37 201.75 229.24 198.46 229.34 195.66ZM229.22 180.03C229.49 180.35 229.7 180.59 229.9 180.82C233.86 185.39 235.88 190.63 235.22 196.72C234.99 198.88 234.43 201.01 234.05 203.15C233.99 203.51 233.9 204.07 234.08 204.22C235.16 205.12 236.21 206.24 237.48 206.68C238.81 207.14 240.39 207.07 241.83 206.95C245.1 206.68 247.74 205.22 249.45 202.31C251.24 199.27 251.85 195.97 251.75 192.47C251.5 183.01 244.85 176.97 235.49 177.85C233.27 178.06 231.16 178.73 229.21 180.01L229.22 180.03ZM195.52 298.42C197.37 313.5 200.64 327.88 207.99 341.1C208.02 337.26 208 333.44 207.65 329.66C207.19 324.75 206.56 319.86 205.83 314.99C205.08 309.96 204.13 304.96 203.22 299.95C203.15 299.55 202.71 298.94 202.39 298.91C200.19 298.68 197.97 298.58 195.53 298.42H195.52ZM256.48 201.41C260.31 202.2 263.8 200.48 265.08 196.95C267.29 190.86 266.41 185.14 262.49 179.95C261.2 178.24 259.5 176.97 257.42 176.34C255.31 175.7 253.23 175.64 251.08 176.82C254.3 180.09 256.32 183.89 257.24 188.27C258.17 192.69 257.88 197.03 256.48 201.41Z" fill="#638889"/>
<path d="M132.631 190.16C126.441 193.59 120.231 196.12 113.161 196.67C113.251 196 113.301 195.39 113.411 194.79C114.531 188.7 116.311 182.81 118.991 177.22C123.981 166.81 132.521 160.76 143.391 157.79C156.221 154.28 166.671 158.69 175.151 168.25C180.541 174.33 184.881 181.23 189.191 188.13C193.091 194.37 197.121 200.53 201.251 206.62C204.051 210.75 207.771 213.97 212.521 215.7C218.131 217.75 223.561 217.57 228.361 213.55C229.501 212.6 230.371 211.32 231.211 210.37C233.011 211.15 234.741 212.31 236.621 212.65C242.941 213.79 248.641 212.52 253.121 207.51C253.351 207.25 253.951 207.13 254.321 207.22C256.861 207.79 259.381 207.75 261.881 207.05C267.751 205.4 270.641 201.14 271.741 195.47C272.121 193.54 272.121 191.52 272.181 189.54C272.201 188.9 272.331 188.6 272.931 188.28C276.881 186.23 280.801 184.11 284.731 182.01C285.011 181.86 285.281 181.68 285.541 181.5C287.091 180.4 287.521 178.75 286.641 177.35C285.771 175.97 284.071 175.61 282.431 176.57C279.311 178.4 276.221 180.29 273.111 182.14C272.501 182.5 271.851 182.8 271.071 183.2C268.371 175.95 263.741 171.01 255.561 170.16C255.561 168.62 255.571 167.16 255.561 165.69C255.291 132.48 255.011 99.2699 254.731 66.0599C254.711 64.2299 254.591 62.3999 254.641 60.5699C254.701 58.1899 254.911 55.8199 255.001 53.4499C255.151 49.7899 254.021 46.5399 251.621 43.7799C248.591 40.2999 244.631 38.5499 240.131 38.0899C237.331 37.8099 234.511 37.7199 231.701 37.7399C208.091 37.9199 184.481 38.1399 160.871 38.3599C154.821 38.4099 148.771 38.4699 142.721 38.5499C140.061 38.5799 137.371 38.3799 134.761 38.7699C126.601 39.9899 121.341 45.7399 120.341 53.9899C119.621 59.9599 120.251 65.9199 120.231 71.8799C120.211 77.5299 120.491 83.1799 120.591 88.8399C120.941 108.59 121.261 128.33 121.621 148.08C121.711 152.85 121.891 157.63 122.001 162.4C122.001 162.7 121.791 163.08 121.571 163.3C115.031 169.87 111.451 177.97 109.391 186.84C108.651 190.04 108.121 193.3 107.471 196.64C106.351 196.5 105.161 196.43 104.011 196.16C103.731 196.1 103.431 195.42 103.431 195.02C103.311 188.53 103.241 182.04 103.151 175.55C102.851 153.13 102.541 130.72 102.241 108.3C102.021 91.8199 101.831 75.3298 101.631 58.8498C101.491 47.1798 101.331 35.5198 101.241 23.8498C101.201 18.2498 104.641 14.1699 110.001 13.3299C110.841 13.1999 111.731 13.4299 112.601 13.4199C123.591 13.2299 134.571 13.0199 145.561 12.8099C150.571 12.7099 155.591 12.5698 160.601 12.4798C175.651 12.2098 190.691 11.9799 205.741 11.7099C222.701 11.3999 239.651 11.0799 256.611 10.7499C261.901 10.6499 267.201 10.5299 272.491 10.3699C273.731 10.3299 274.551 10.7799 274.761 11.9599C274.961 13.0699 274.991 14.2198 275.011 15.3498C275.041 17.8198 274.961 20.2799 275.011 22.7499C275.221 34.4899 275.451 46.2399 275.691 57.9799C276.141 80.2699 276.611 102.56 277.061 124.86C277.251 134.49 277.401 144.13 277.581 153.76C277.661 158.14 277.741 162.52 277.831 166.9C277.831 167.22 277.851 167.54 277.911 167.85C278.241 169.54 279.541 170.61 281.091 170.48C282.651 170.35 283.771 169.11 283.781 167.37C283.781 164.14 283.751 160.92 283.691 157.69C283.581 152.36 283.411 147.02 283.311 141.69C283.041 127.04 282.801 112.39 282.531 97.7399C282.221 81.2599 281.901 64.7799 281.571 48.2999C281.361 37.5899 281.141 26.8799 280.911 16.1799C280.881 14.9199 280.721 13.6599 280.611 12.2399C283.091 13.0199 285.401 13.7398 287.701 14.4798C300.431 18.5198 313.161 22.5798 325.901 26.5998C326.811 26.8898 327.381 27.3598 327.781 28.2298C328.901 30.6698 329.331 33.2699 329.391 35.8799C329.831 55.8199 330.211 75.7699 330.581 95.7099C330.851 110 331.071 124.29 331.341 138.59C331.701 157.54 332.111 176.49 332.481 195.44C332.661 204.72 332.821 213.99 332.991 223.27C333.261 238.24 333.521 253.21 333.831 268.17C333.921 272.51 334.181 276.84 334.351 281.17C334.351 281.4 334.351 281.63 334.351 281.81C318.121 287.03 301.991 292.22 285.761 297.44C285.651 293.73 285.531 290.23 285.441 286.73C285.321 282.03 285.241 277.34 285.121 272.64C285.101 271.97 285.061 271.28 284.911 270.62C284.611 269.23 283.461 268.31 282.111 268.28C280.751 268.25 279.551 269.12 279.241 270.52C279.061 271.32 279.071 272.18 279.091 273.01C279.291 280.85 279.511 288.69 279.721 296.53C279.731 296.92 279.721 297.3 279.721 297.86C225.921 294.36 172.261 290.86 118.381 287.35C118.661 285.91 118.851 284.59 119.171 283.31C120.741 277.09 123.701 271.67 128.701 267.55C132.081 264.77 135.921 263.48 140.421 263.88C145.371 264.32 150.361 264.33 155.331 264.52C165.591 264.91 175.851 265.3 186.111 265.67C193.751 265.95 201.381 266.18 209.021 266.46C218.411 266.81 227.791 267.2 237.171 267.57C241.741 267.75 246.321 267.98 250.891 268.07C258.131 268.22 265.371 268.28 272.621 268.34C273.771 268.34 274.931 268.26 276.061 268.05C279.611 267.38 282.111 265.49 283.371 261.97C284.421 259.04 284.951 256.04 284.921 252.97C284.831 244.05 284.621 235.13 284.481 226.22C284.481 225.73 284.631 225.24 284.711 224.76C284.831 224.76 284.951 224.77 285.071 224.78C285.171 225.02 285.291 225.25 285.351 225.49C286.281 229.04 289.031 230.78 292.681 230.05C295.461 229.49 297.911 228.15 300.231 226.6C301.681 225.63 302.011 223.96 301.211 222.61C300.421 221.28 298.791 220.83 297.221 221.6C295.871 222.27 294.581 223.07 293.241 223.77C292.751 224.03 292.221 224.22 291.691 224.37C291.091 224.54 290.661 224.38 290.701 223.63C290.771 222.17 290.961 220.84 292.541 220.07C294.971 218.89 297.321 217.55 299.711 216.26C301.901 215.08 302.671 213.38 301.781 211.74C300.931 210.18 299.121 209.9 296.941 210.97C288.201 215.27 280.131 220.66 272.121 226.16C260.631 234.06 248.871 241.48 236.241 247.46C230.121 250.36 223.851 252.88 217.131 254.04C207.771 255.66 199.101 253.71 191.041 248.84C183.981 244.58 177.911 239.1 172.741 232.74C166.091 224.56 159.761 216.11 153.371 207.72C149.391 202.5 145.661 197.08 141.591 191.92C139.591 189.38 137.101 187.22 134.751 184.96C134.141 184.37 133.301 183.96 132.501 183.64C131.181 183.11 129.821 183.64 129.201 184.77C128.571 185.91 128.881 187.3 130.001 188.18C130.811 188.82 131.661 189.4 132.641 190.12L132.631 190.16ZM110.081 64.7099C110.201 64.7099 110.331 64.7099 110.451 64.7099C110.571 70.2399 110.681 75.7699 110.801 81.2999C110.811 81.8899 110.851 82.4999 111.001 83.0699C111.401 84.5599 112.681 85.4499 114.111 85.2999C115.541 85.1499 116.611 84.0299 116.741 82.4999C116.781 82.1099 116.761 81.6999 116.741 81.3099C116.571 72.5199 116.381 63.7199 116.231 54.9299C116.181 52.0299 116.021 49.1199 116.301 46.2499C116.951 39.5999 121.801 35.4299 128.471 35.4399C135.991 35.4399 143.511 35.4099 151.041 35.3799C151.791 35.3799 152.561 35.3298 153.291 35.1598C154.621 34.8398 155.481 33.6799 155.491 32.3799C155.501 31.0799 154.661 29.8999 153.341 29.5599C152.621 29.3799 151.851 29.3399 151.101 29.3399C143.581 29.3599 136.061 29.4199 128.531 29.4399C125.371 29.4399 122.341 30.0299 119.571 31.5499C113.051 35.1399 110.391 41.0499 110.111 48.1399C109.891 53.6599 110.071 59.1999 110.071 64.7299L110.081 64.7099ZM304.781 116.87C304.781 117.04 304.781 117.21 304.781 117.38C308.881 117.38 312.971 117.39 317.071 117.38C319.031 117.38 320.351 116.23 320.431 114.56C320.501 112.86 319.151 111.5 317.191 111.45C308.881 111.22 300.571 111.03 292.261 110.84C291.791 110.83 291.301 110.9 290.851 111.03C289.641 111.38 288.821 112.43 288.751 113.65C288.671 114.92 289.401 116.09 290.641 116.54C291.191 116.74 291.801 116.86 292.391 116.86C296.521 116.89 300.661 116.87 304.801 116.87H304.781ZM305.831 189.63C305.831 189.63 305.831 189.54 305.831 189.49C306.511 189.49 307.181 189.5 307.861 189.49C311.281 189.43 314.701 189.38 318.121 189.28C319.971 189.23 321.251 188 321.271 186.36C321.291 184.71 320.041 183.49 318.191 183.36C317.831 183.34 317.471 183.34 317.121 183.35C309.441 183.44 301.761 183.52 294.081 183.63C293.381 183.64 292.641 183.77 291.991 184.01C290.841 184.44 290.181 185.55 290.231 186.74C290.281 187.97 290.891 188.88 292.031 189.32C292.611 189.54 293.271 189.62 293.891 189.62C297.871 189.65 301.851 189.63 305.831 189.63ZM305.001 140.05C305.001 140.14 305.001 140.23 305.001 140.32C308.941 140.32 312.881 140.34 316.821 140.32C318.751 140.31 320.071 139.1 320.101 137.42C320.121 135.74 318.831 134.5 316.921 134.39C316.681 134.38 316.441 134.39 316.201 134.38C308.641 134.26 301.081 134.13 293.521 134.02C292.891 134.02 292.241 134.06 291.631 134.23C290.361 134.58 289.551 135.71 289.521 136.97C289.501 138.22 290.291 139.39 291.541 139.77C292.211 139.97 292.951 140.05 293.651 140.05C297.431 140.08 301.211 140.06 304.991 140.06L305.001 140.05ZM305.071 163.97C307.061 163.97 309.051 163.97 311.041 163.97C313.071 163.97 315.101 164 317.131 163.95C318.971 163.91 320.251 162.67 320.261 161.02C320.271 159.42 319.061 158.2 317.291 158.03C316.971 158 316.651 158.01 316.341 158.01C308.861 158.01 301.381 158.01 293.901 158.01C293.351 158.01 292.781 158.04 292.251 158.17C290.861 158.52 290.031 159.57 290.001 160.9C289.971 162.26 290.811 163.41 292.221 163.79C292.751 163.93 293.321 163.96 293.871 163.96C297.611 163.97 301.351 163.96 305.091 163.96L305.071 163.97Z" fill="white"/>
<path d="M234.541 301.95C234.271 304.34 234.031 306.63 233.761 308.91C233.071 314.77 232.971 320.65 233.281 326.55C233.821 336.76 235.451 346.79 238.101 356.64C239.011 360.01 240.101 363.36 241.421 366.58C242.731 369.77 244.431 372.79 246.011 375.99C245.901 376.06 245.651 376.23 245.391 376.39C240.981 379.01 236.551 381.6 232.161 384.25C230.641 385.17 230.211 386.73 230.981 388.02C231.711 389.25 233.231 389.6 234.771 388.87C235.201 388.66 235.611 388.42 236.031 388.19C238.381 386.85 240.701 385.45 243.091 384.19C245.521 382.92 248.021 381.78 250.491 380.6C250.841 380.43 251.211 380.33 251.731 380.41C250.901 381.16 250.081 381.93 249.221 382.65C247.691 383.93 247.271 385.45 247.951 387.35C248.651 389.33 250.151 390.03 252.081 389.15C255.331 387.66 258.551 386.09 261.831 384.66C270.701 380.8 279.701 377.32 289.201 375.31C302.971 372.39 316.481 372.86 329.541 378.56C337.591 382.07 344.591 387.02 349.841 394.17C353.341 398.93 355.491 404.21 355.411 410.23C355.281 419.4 351.171 429.36 338.201 432.01C332.951 433.08 327.641 433.92 322.321 434.61C315.581 435.49 308.821 436.31 302.041 436.78C295.621 437.23 289.161 437.35 282.711 437.37C261.141 437.42 239.841 435.09 218.881 429.92C216.841 429.42 214.841 428.74 212.871 427.99C211.901 427.62 211.061 426.9 210.151 426.35C209.471 425.94 208.791 425.53 208.081 425.18C205.511 423.91 202.901 422.74 200.371 421.41C194.021 418.08 192.261 413.11 193.781 406.06C194.711 401.77 196.781 397.96 198.751 394.09C201.971 387.79 205.381 381.57 208.191 375.09C211.481 367.49 213.041 359.38 213.711 351.13C214.651 339.56 213.881 328.08 212.091 316.64C211.721 314.24 211.311 311.85 210.851 309.47C210.691 308.64 210.941 308.16 211.621 307.69C216.381 304.35 221.661 302.6 227.441 302.32C229.741 302.21 232.041 302.09 234.501 301.96L234.541 301.95Z" fill="white"/>
<path d="M190.18 420.54C187.12 421.31 184.05 422.12 180.98 422.86C172 425.03 162.93 426.87 153.73 427.43C143.05 428.07 132.33 428.33 121.64 428.16C109.34 427.97 97.1203 426.49 85.1303 423.64C81.9503 422.89 78.7603 421.78 75.8903 420.23C70.1503 417.14 67.2503 411.97 66.5803 405.54C65.8803 398.88 67.7303 392.72 70.8103 386.97C79.0403 371.62 91.2303 361.22 108.61 357.65C116.09 356.11 123.67 355.82 131.29 356.22C139.25 356.64 147.15 357.6 154.84 359.7C159.39 360.94 163.85 362.55 168.29 364.17C171.2 365.23 173.69 367.02 175.78 369.35C176.74 370.41 177.78 371.41 178.85 372.36C179.37 372.83 179.99 373.23 180.64 373.5C181.79 373.99 182.85 373.67 183.68 372.78C184.49 371.92 184.66 370.83 184.16 369.78C183.81 369.05 183.24 368.4 182.68 367.79C180.8 365.74 178.79 363.79 177.01 361.66C175.09 359.37 173.86 356.69 173.49 353.69C173.39 352.88 173.49 352.03 173.57 351.21C173.67 350.16 174.36 349.99 175.05 350.56C176.32 351.62 177.67 352.67 178.61 353.99C179.61 355.39 180.22 357.07 180.93 358.67C181.78 360.59 183.33 361.45 184.97 360.83C186.6 360.22 187.3 358.6 186.66 356.67C181.95 342.52 176.82 328.52 170.5 314.99C170 313.91 169.99 313.17 170.58 312.09C174.66 304.61 181.22 300.97 189.36 299.69C189.59 299.65 189.83 299.66 190.19 299.64C190.31 300.94 190.44 302.19 190.56 303.43C192.05 319.01 196.53 333.65 204.33 347.24C204.92 348.27 205.37 349.38 205.9 350.44C206.11 350.86 206.29 351.4 206.64 351.64C207.67 352.32 207.56 353.22 207.44 354.25C205.99 366.88 201 378.2 194.75 389.08C192.03 393.81 189.51 398.64 188.16 403.98C186.73 409.64 186.92 415.09 190.11 420.19C190.15 420.25 190.14 420.34 190.18 420.52V420.54Z" fill="white"/>
<path d="M195.44 186.86C189.47 177.38 183.58 167.87 175.3 159.69C190.78 164.2 205.8 163.74 220.4 157.65C221.8 159.38 223.1 161.02 224.44 162.63C224.87 163.14 225.36 163.63 225.91 164.01C227.18 164.89 228.75 164.74 229.73 163.71C230.68 162.72 230.83 161.2 229.96 159.98C229.32 159.08 228.55 158.25 227.81 157.43C223.94 153.16 222.88 148.12 223.65 142.56C223.68 142.32 223.74 142.09 223.76 141.85C223.92 140.05 223.09 138.78 221.58 138.54C220.16 138.31 218.93 139.23 218.51 140.92C217.64 144.41 217.64 147.93 218.34 151.45C218.37 151.6 218.4 151.75 218.48 152.14C215.58 153.06 212.71 154.1 209.77 154.88C197.77 158.05 185.94 156.99 174.3 153.12C163.27 149.45 152.93 144.27 143 138.27C142.49 137.96 141.98 137.63 141.43 137.43C140.32 137.02 139.1 137.43 138.47 138.37C137.8 139.37 137.79 140.43 138.52 141.37C138.95 141.92 139.51 142.42 140.11 142.78C143.97 145.15 147.86 147.48 151.74 149.83C152.07 150.03 152.4 150.22 152.73 150.51C148.27 150.45 143.97 151.28 139.76 152.6C135.58 153.91 131.66 155.82 127.83 158.23C127.79 157.77 127.75 157.51 127.75 157.25C127.58 147.66 127.43 138.06 127.25 128.47C126.96 112.71 126.64 96.94 126.35 81.18C126.21 73.46 126.06 65.73 126.02 58.01C126.01 56.32 126.26 54.58 126.66 52.93C128.21 46.51 133.07 44.41 138.44 44.44C140.47 44.45 142.5 44.52 144.52 44.51C174.93 44.25 205.35 43.97 235.76 43.76C237.8 43.75 239.88 44.1 241.88 44.58C243.19 44.9 244.5 45.58 245.6 46.39C247.62 47.87 248.79 49.72 248.71 52.53C248.53 58.81 248.71 65.11 248.76 71.4C248.9 88.68 249.05 105.96 249.2 123.24C249.34 138.85 249.47 154.46 249.64 170.06C249.65 171 249.25 171.44 248.58 172.06C247.06 173.48 245.7 173.23 243.85 172.7C237.22 170.82 231.03 172.13 225.37 176.05C225.02 176.29 224.37 176.5 224.05 176.33C214.89 171.6 205.98 175.01 199.88 180.87C199 181.72 198.21 182.69 197.48 183.68C196.75 184.67 196.15 185.75 195.45 186.85L195.44 186.86ZM162.32 143.32C167.04 143.32 171.6 142.44 176.05 141C177.82 140.43 178.61 139 178.14 137.53C177.67 136.08 176.31 135.45 174.53 135.88C173.49 136.13 172.45 136.41 171.4 136.63C163.3 138.34 155.49 137.61 148.12 133.66C143.87 131.38 140.46 128.2 138.71 123.59C138.28 122.45 138.01 121.07 138.2 119.89C138.69 116.68 141.08 115.07 143.92 114.1C146.98 113.05 150.05 113.5 153.07 114.41C157.61 115.79 161.62 118.23 165.6 120.74C167.11 121.69 168.63 122.64 170.13 123.61C170.71 123.98 171.37 124.31 171.79 124.83C174.11 127.71 176.77 130.21 179.87 132.21C190.4 139.03 201.88 141.07 214.13 138.73C221.74 137.28 228.47 133.99 233.71 128.12C234.73 126.98 235.88 126.43 237.27 125.96C239.21 125.3 241.23 124.63 242.88 123.48C245.58 121.59 245.71 118.24 243.34 115.94C242.36 114.99 241.13 114.27 239.93 113.58C239.24 113.18 238.98 112.84 239.16 112.01C240.12 107.62 240.28 103.18 239.82 98.7199C238.89 89.6699 235.52 81.6499 229.51 74.7899C218.58 62.3099 201.46 58.67 186.89 65.77C185.5 66.45 184.3 67.0199 182.9 65.9699C182.72 65.8399 182.45 65.82 182.22 65.75C176.07 64.03 169.92 64.1599 163.88 66.1699C150.97 70.4799 142.66 79.49 138.01 92.06C135.76 98.17 135.06 104.5 135.93 110.97C136.02 111.66 135.9 112.05 135.46 112.53C132.23 116.06 131.3 120.11 132.73 124.69C133.61 127.51 135.05 130.02 136.99 132.22C143.71 139.86 152.42 142.96 162.32 143.31V143.32ZM151.89 50.9199C150.72 51.1699 148.38 51.48 146.19 52.21C142.99 53.28 140.42 55.27 139.1 58.51C137.62 62.13 139.37 65.64 143.17 66.58C144.34 66.87 145.65 66.9999 146.82 66.7899C149.15 66.3599 151.5 65.83 153.72 65.01C158.48 63.25 163.05 60.99 168.3 60.78C170.37 60.7 171.24 58.25 169.91 56.63C169.3 55.89 168.44 55.29 167.59 54.81C163.09 52.3 158.22 51.1499 151.91 50.9199H151.89ZM216.06 45.69C212.73 45.91 209.55 46.52 206.54 47.68C202.21 49.35 197.95 51.2299 193.73 53.1599C192.47 53.7399 192.11 55.3399 192.57 56.5999C193.02 57.8199 194.19 58.5599 195.6 58.4199C196.19 58.3599 196.77 58.19 197.33 58C199.76 57.2 202.2 56.5299 204.8 56.6599C207.66 56.7999 210.52 56.9 213.38 57.07C216.19 57.23 218.96 57.0799 221.57 55.9099C223.47 55.0499 224.84 53.68 224.84 51.46C224.84 49.2 223.46 47.71 221.46 46.99C219.73 46.37 217.87 46.11 216.06 45.69ZM202.88 173.34C204.27 173.15 206.54 172.99 208.74 172.49C210.46 172.1 212.17 171.45 213.73 170.61C215.29 169.77 215.66 167.83 214.83 166.45C214.06 165.15 212.45 164.69 210.96 165.4C206.3 167.61 201.41 167.99 196.4 167.14C194.96 166.9 193.57 166.38 192.16 165.98C190.7 165.56 189.38 166.06 188.8 167.27C188.2 168.52 188.66 169.95 189.98 170.76C190.48 171.07 191.04 171.32 191.59 171.53C194.94 172.8 198.45 173.17 202.88 173.33V173.34Z" fill="white"/>
<path d="M97.2701 176.27V194.5C96.7401 194.27 96.1701 194.06 95.6401 193.79C93.9201 192.91 92.36 193.22 91.6 194.63C90.82 196.08 91.4201 197.71 93.1401 198.59C96.8901 200.53 100.93 201.55 105.07 202.22C113.96 203.66 122.31 201.81 130.33 198.04C132.45 197.05 134.52 195.96 136.61 194.92C142.25 202.67 147.86 210.38 153.59 218.25C149.86 219.77 146.21 221.33 142.51 222.75C132.94 226.42 123.13 229.24 112.99 230.79C104.06 232.15 95.1001 232.66 86.1801 230.63C82.3401 229.76 78.7201 228.35 75.6801 225.75C70.9201 221.69 70.0401 216.44 71.2601 210.67C72.6201 204.21 76.0201 198.74 79.9501 193.57C84.7501 187.27 90.4301 181.81 96.5101 176.76C96.6501 176.64 96.8201 176.56 97.2701 176.27Z" fill="white"/>
<path d="M157.04 222.89C159.72 226.3 162.33 229.71 165.04 233.04C171.33 240.75 178.25 247.81 186.69 253.23C191.9 256.57 197.53 258.9 203.63 260.02C203.77 260.05 203.92 260.07 204.04 260.24C202.91 260.24 201.77 260.28 200.64 260.24C192.45 259.94 184.26 259.64 176.07 259.33C164.5 258.89 152.93 258.42 141.36 257.98C133.89 257.7 126.41 257.46 118.93 257.18C115.59 257.06 112.24 257.05 108.92 256.7C107.22 256.52 105.55 255.82 103.95 255.14C102.59 254.56 102.27 253.16 102.2 251.82C101.99 247.49 101.87 243.15 101.69 238.82C101.66 238.09 101.91 237.86 102.63 237.82C121.09 236.88 138.37 231.41 155.13 223.99C155.78 223.7 156.36 223.28 157.04 222.89Z" fill="white"/>
<path d="M278.72 229.38C278.72 231.96 278.69 234.55 278.72 237.13C278.78 241.67 278.91 246.2 278.94 250.74C278.96 253.72 278.83 256.68 277.88 259.57C277.26 261.45 275.99 262.24 274.19 262.41C272.81 262.54 271.41 262.59 270.02 262.66C268.27 262.74 266.52 262.89 264.77 262.83C262.52 262.76 260.27 262.48 258.02 262.37C252.57 262.12 247.13 261.92 241.68 261.72C232.42 261.38 223.15 261.05 213.88 260.72C213.74 260.72 213.59 260.68 213.16 260.62C225.91 259.46 236.86 254.1 247.67 248.36C257.88 242.94 267.5 236.58 277.02 230.05C277.44 229.77 277.86 229.5 278.28 229.22C278.42 229.27 278.56 229.32 278.7 229.37L278.72 229.38Z" fill="white"/>
<path d="M229.35 195.66C229.25 198.46 228.39 201.75 227.13 204.95C225.17 209.97 221.59 212.06 215.37 210.36C212.47 209.57 209.99 207.87 208.12 205.54C205.66 202.47 203.42 199.23 201.14 196.03C200.8 195.55 200.68 194.86 200.61 194.24C200.16 190.07 201.82 186.82 205.02 184.25C208.1 181.77 211.46 180.01 215.55 180.15C223.21 180.41 229.55 187.22 229.35 195.66Z" fill="white"/>
<path d="M229.23 180.02C231.18 178.75 233.29 178.07 235.51 177.86C244.87 176.98 251.521 183.02 251.771 192.48C251.861 195.98 251.25 199.27 249.47 202.32C247.76 205.24 245.12 206.69 241.85 206.96C240.41 207.08 238.83 207.15 237.5 206.69C236.23 206.25 235.18 205.13 234.1 204.23C233.92 204.08 234 203.51 234.07 203.16C234.45 201.01 235 198.89 235.24 196.73C235.9 190.64 233.881 185.4 229.921 180.83C229.711 180.59 229.51 180.36 229.24 180.04L229.23 180.02Z" fill="white"/>
<path d="M256.48 201.41C257.89 197.03 258.17 192.69 257.24 188.27C256.32 183.89 254.3 180.09 251.08 176.82C253.23 175.64 255.32 175.7 257.42 176.34C259.5 176.98 261.2 178.24 262.49 179.95C266.4 185.14 267.28 190.86 265.08 196.95C263.8 200.49 260.31 202.21 256.48 201.41Z" fill="white"/>
<path d="M110.081 64.7098C110.081 59.1798 109.911 53.6398 110.121 48.1198C110.401 41.0298 113.061 35.1198 119.581 31.5298C122.361 29.9998 125.381 29.4298 128.541 29.4198C136.061 29.3998 143.581 29.3398 151.111 29.3198C151.861 29.3198 152.631 29.3598 153.351 29.5398C154.671 29.8798 155.511 31.0598 155.501 32.3598C155.491 33.6698 154.631 34.8198 153.301 35.1398C152.571 35.3198 151.801 35.3598 151.051 35.3598C143.531 35.3998 136.011 35.4298 128.481 35.4198C121.811 35.4198 116.961 39.5898 116.311 46.2298C116.031 49.0998 116.191 52.0198 116.241 54.9098C116.391 63.6998 116.581 72.4998 116.751 81.2898C116.751 81.6898 116.781 82.0898 116.751 82.4798C116.611 84.0098 115.541 85.1298 114.121 85.2798C112.691 85.4298 111.411 84.5398 111.011 83.0498C110.861 82.4798 110.821 81.8698 110.811 81.2798C110.681 75.7498 110.571 70.2198 110.461 64.6898C110.341 64.6898 110.211 64.6898 110.091 64.6898L110.081 64.7098Z" fill="#638889"/>
<path d="M304.78 116.87C300.64 116.87 296.51 116.88 292.37 116.86C291.79 116.86 291.17 116.74 290.62 116.54C289.38 116.09 288.66 114.92 288.73 113.65C288.8 112.44 289.62 111.39 290.83 111.03C291.28 110.9 291.77 110.83 292.24 110.84C300.55 111.03 308.86 111.22 317.17 111.45C319.13 111.5 320.48 112.86 320.41 114.56C320.34 116.24 319.02 117.37 317.05 117.38C312.95 117.4 308.86 117.38 304.76 117.38C304.76 117.21 304.76 117.04 304.76 116.87H304.78Z" fill="#638889"/>
<path d="M305.84 189.64C301.86 189.64 297.88 189.65 293.9 189.63C293.28 189.63 292.61 189.55 292.04 189.33C290.9 188.89 290.29 187.99 290.24 186.75C290.19 185.56 290.85 184.46 292 184.02C292.65 183.77 293.39 183.65 294.09 183.64C301.77 183.53 309.45 183.44 317.13 183.36C317.49 183.36 317.85 183.35 318.2 183.37C320.04 183.49 321.3 184.72 321.28 186.37C321.26 188.01 319.98 189.24 318.13 189.29C314.71 189.39 311.29 189.44 307.87 189.5C307.19 189.51 306.52 189.5 305.84 189.5C305.84 189.55 305.84 189.59 305.84 189.64Z" fill="#638889"/>
<path d="M305.01 140.05C301.23 140.05 297.45 140.06 293.67 140.04C292.96 140.04 292.23 139.96 291.56 139.76C290.3 139.38 289.51 138.21 289.54 136.96C289.56 135.7 290.38 134.57 291.65 134.22C292.25 134.05 292.91 134 293.54 134.01C301.1 134.12 308.66 134.24 316.22 134.37C316.46 134.37 316.7 134.37 316.94 134.38C318.85 134.5 320.15 135.73 320.12 137.41C320.1 139.09 318.78 140.3 316.84 140.31C312.9 140.33 308.96 140.31 305.02 140.31C305.02 140.22 305.02 140.13 305.02 140.04L305.01 140.05Z" fill="#638889"/>
<path d="M305.07 163.97C301.33 163.97 297.59 163.97 293.85 163.97C293.3 163.97 292.73 163.94 292.2 163.8C290.8 163.42 289.95 162.28 289.98 160.91C290.01 159.59 290.85 158.54 292.23 158.18C292.76 158.04 293.33 158.02 293.88 158.02C301.36 158.02 308.84 158.02 316.32 158.02C316.64 158.02 316.96 158.02 317.27 158.04C319.04 158.2 320.25 159.43 320.24 161.03C320.23 162.68 318.96 163.92 317.11 163.96C315.08 164.01 313.05 163.97 311.02 163.98C309.03 163.98 307.04 163.98 305.05 163.98L305.07 163.97Z" fill="#638889"/>
<path d="M162.31 143.32C152.41 142.96 143.69 139.86 136.98 132.23C135.05 130.03 133.6 127.52 132.72 124.7C131.29 120.12 132.21 116.06 135.45 112.54C135.89 112.06 136.01 111.67 135.92 110.98C135.05 104.51 135.75 98.1799 138 92.0699C142.64 79.4899 150.96 70.4799 163.87 66.1799C169.9 64.1699 176.05 64.0399 182.21 65.7599C182.44 65.8199 182.71 65.8399 182.89 65.9799C184.29 67.0199 185.49 66.4499 186.88 65.7799C201.45 58.6799 218.57 62.3099 229.5 74.7999C235.51 81.6599 238.88 89.6699 239.81 98.7299C240.27 103.19 240.11 107.63 239.15 112.02C238.97 112.85 239.23 113.19 239.92 113.59C241.12 114.28 242.35 115 243.33 115.95C245.7 118.25 245.57 121.6 242.87 123.49C241.22 124.64 239.19 125.31 237.26 125.97C235.87 126.44 234.72 126.99 233.7 128.13C228.46 134 221.73 137.28 214.12 138.74C201.87 141.08 190.39 139.04 179.86 132.22C176.76 130.21 174.1 127.71 171.78 124.84C171.36 124.32 170.7 123.99 170.12 123.62C168.62 122.65 167.1 121.7 165.59 120.75C161.61 118.24 157.61 115.8 153.06 114.42C150.04 113.51 146.97 113.06 143.91 114.11C141.08 115.08 138.69 116.69 138.19 119.9C138.01 121.09 138.27 122.46 138.7 123.6C140.45 128.21 143.86 131.39 148.11 133.67C155.47 137.62 163.28 138.36 171.39 136.64C172.44 136.42 173.48 136.14 174.52 135.89C176.3 135.47 177.66 136.09 178.13 137.54C178.6 139.02 177.81 140.44 176.04 141.01C171.59 142.45 167.03 143.32 162.31 143.33V143.32ZM171.78 112.65C183.98 109.67 195.99 108.93 207.96 108.56C208.08 106.98 208.19 105.53 208.3 104.17C212.2 103.62 215.94 103.13 219.66 102.56C221.08 102.34 222.5 102.03 223.87 101.59C224.32 101.45 224.6 100.78 224.96 100.35C224.59 100.05 224.27 99.6199 223.85 99.4899C222.32 99.0299 220.77 98.6299 219.21 98.2799C216.45 97.6599 213.68 97.0999 210.8 96.4999C212.84 92.8899 215.49 90.0999 219.06 88.2599C222.67 86.4099 226.43 85.9099 230.53 87.2299C229.08 84.0399 227.31 81.3099 225.13 78.8799C218.47 71.4499 210.2 67.5399 200.16 68.2299C190.84 68.8699 183.49 73.3799 177.92 80.7899C172.99 87.3499 170.75 94.8599 170.79 102.99C170.81 106.14 171.41 109.28 171.77 112.64L171.78 112.65ZM174.36 117.6C174.44 117.87 174.45 118 174.51 118.1C174.66 118.38 174.82 118.66 174.99 118.93C177.5 122.98 180.94 126.07 185.05 128.41C193.42 133.18 202.42 134.65 211.88 133.09C218.04 132.08 223.62 129.68 228.2 125.28C228.51 124.98 228.95 124.68 229.05 124.3C229.63 122.09 231.39 121.47 233.29 120.94C234.88 120.5 236.45 120 238.03 119.53C238.05 119.41 238.07 119.28 238.09 119.16C236.32 118.49 234.58 117.73 232.78 117.18C225.59 114.98 218.15 114.63 210.71 114.58C200.92 114.52 191.17 115.34 181.45 116.49C179.1 116.77 176.76 117.22 174.38 117.6H174.36ZM166.92 89.2599C169.24 82.2499 173.1 76.1799 178.74 71.1099C174.41 70.1599 170.34 70.4499 166.38 71.6599C155.36 75.0399 148.22 82.5599 144 93.0699C142.03 97.9699 141.27 103.09 141.64 108.29C143.94 107.96 146.19 107.64 148.37 107.33C148.25 106.31 148.13 105.27 147.98 104.03C148.82 104.03 149.45 104.02 150.07 104.03C153.53 104.1 156.99 104.22 160.45 104.23C161.26 104.23 162.07 103.86 162.85 103.66C162.72 102.22 162.02 101.55 160.96 101.22C159.84 100.86 158.71 100.52 157.58 100.2C155.12 99.5099 152.66 98.8499 150.17 98.1699C153.28 91.5999 159.89 88.0899 166.92 89.2699V89.2599Z" fill="#638889"/>
<path d="M151.88 50.9099C158.19 51.1399 163.06 52.2899 167.56 54.7999C168.41 55.2799 169.27 55.8799 169.88 56.6199C171.22 58.2399 170.35 60.69 168.27 60.77C163.03 60.97 158.45 63.2299 153.69 64.9999C151.47 65.8199 149.12 66.35 146.79 66.78C145.62 66.99 144.31 66.8599 143.14 66.5699C139.34 65.6299 137.6 62.1199 139.07 58.4999C140.39 55.2599 142.96 53.26 146.16 52.2C148.36 51.47 150.7 51.1599 151.86 50.9099H151.88Z" fill="#638889"/>
<path d="M216.05 45.6799C217.85 46.0999 219.72 46.3499 221.45 46.9799C223.45 47.6999 224.82 49.19 224.83 51.45C224.83 53.66 223.46 55.04 221.56 55.9C218.96 57.08 216.19 57.2199 213.37 57.0599C210.51 56.8999 207.65 56.79 204.79 56.65C202.2 56.53 199.75 57.1899 197.32 57.9899C196.76 58.1799 196.17 58.3499 195.59 58.4099C194.18 58.5499 193 57.81 192.56 56.59C192.09 55.33 192.45 53.72 193.72 53.15C197.95 51.22 202.2 49.3399 206.53 47.6699C209.54 46.5099 212.72 45.8999 216.05 45.6799Z" fill="#638889"/>
<path d="M202.871 173.33C198.441 173.17 194.931 172.8 191.581 171.53C191.031 171.32 190.471 171.07 189.971 170.76C188.651 169.95 188.191 168.52 188.791 167.27C189.371 166.06 190.691 165.56 192.151 165.98C193.561 166.38 194.951 166.9 196.391 167.14C201.401 167.98 206.291 167.6 210.951 165.4C212.441 164.7 214.051 165.16 214.821 166.45C215.651 167.83 215.281 169.77 213.721 170.61C212.161 171.44 210.451 172.09 208.731 172.49C206.531 172.99 204.261 173.15 202.871 173.34V173.33Z" fill="#638889"/>
<path d="M171.78 112.64C171.42 109.28 170.82 106.14 170.8 102.99C170.76 94.85 173 87.3399 177.93 80.7899C183.5 73.3799 190.86 68.8699 200.17 68.2299C210.21 67.5399 218.48 71.45 225.14 78.88C227.32 81.32 229.09 84.0399 230.54 87.2299C226.44 85.9099 222.68 86.41 219.07 88.26C215.5 90.1 212.85 92.88 210.81 96.5C213.68 97.11 216.46 97.67 219.22 98.28C220.78 98.63 222.33 99.03 223.86 99.49C224.28 99.62 224.6 100.05 224.97 100.35C224.61 100.78 224.33 101.44 223.88 101.59C222.51 102.03 221.09 102.35 219.67 102.56C215.95 103.13 212.21 103.62 208.31 104.17C208.21 105.53 208.09 106.98 207.97 108.56C196 108.93 183.99 109.66 171.79 112.65L171.78 112.64Z" fill="white"/>
<path d="M174.36 117.6C176.74 117.22 179.07 116.77 181.43 116.49C191.15 115.35 200.9 114.52 210.69 114.58C218.13 114.63 225.57 114.98 232.76 117.18C234.56 117.73 236.3 118.5 238.07 119.16C238.05 119.28 238.03 119.41 238.01 119.53C236.43 120 234.86 120.5 233.27 120.94C231.38 121.46 229.61 122.09 229.03 124.3C228.93 124.68 228.5 124.98 228.18 125.28C223.6 129.67 218.02 132.07 211.86 133.09C202.4 134.65 193.4 133.18 185.03 128.41C180.92 126.07 177.49 122.98 174.97 118.93C174.8 118.66 174.64 118.38 174.49 118.1C174.44 118 174.42 117.88 174.34 117.6H174.36ZM200.62 117.16C195.87 117.55 190.84 117.94 185.82 118.4C183.74 118.59 182.57 119.89 182.81 121.51C183.04 123.05 184.49 123.98 186.32 123.77C195.22 122.74 204.1 123.33 212.99 123.95C214.38 124.05 215.76 124.27 217.15 124.27C218.87 124.27 220.17 123.12 220.33 121.62C220.49 120.17 219.38 118.82 217.69 118.42C217.46 118.37 217.22 118.34 216.98 118.32C211.63 117.94 206.28 117.56 200.62 117.15V117.16Z" fill="white"/>
<path d="M166.92 89.2599C159.89 88.0899 153.28 91.5899 150.17 98.1599C152.65 98.8399 155.12 99.5099 157.58 100.19C158.71 100.51 159.84 100.85 160.96 101.21C162.02 101.55 162.73 102.22 162.85 103.65C162.07 103.84 161.26 104.22 160.45 104.22C156.99 104.22 153.53 104.09 150.07 104.02C149.45 104.01 148.82 104.02 147.98 104.02C148.13 105.26 148.25 106.3 148.37 107.32C146.2 107.63 143.94 107.95 141.64 108.28C141.27 103.08 142.03 97.9599 144 93.0599C148.22 82.5599 155.35 75.0299 166.38 71.6499C170.34 70.4399 174.41 70.1399 178.74 71.0999C173.1 76.1699 169.25 82.2399 166.92 89.2499V89.2599Z" fill="white"/>
<path d="M200.61 117.15C206.28 117.55 211.63 117.93 216.97 118.32C217.21 118.34 217.45 118.37 217.68 118.42C219.37 118.82 220.48 120.17 220.32 121.62C220.15 123.12 218.86 124.28 217.14 124.27C215.75 124.27 214.37 124.04 212.98 123.95C204.09 123.33 195.21 122.74 186.31 123.77C184.48 123.98 183.03 123.05 182.8 121.51C182.56 119.89 183.73 118.59 185.81 118.4C190.83 117.94 195.86 117.55 200.61 117.16V117.15Z" fill="#638889"/>
</svg>
