<?xml version="1.0" encoding="UTF-8"?><svg id="Calque_1" xmlns="http://www.w3.org/2000/svg" viewBox="0 0 32 32"><defs><style>.cls-1{fill:#ef2e73;}.cls-1,.cls-2{stroke-width:0px;}.cls-2{fill:#000;}</style></defs><circle class="cls-1" cx="16" cy="16" r="16"/><rect class="cls-2" x="7.41" y="7.57" width="3.69" height="7.14" rx="1.04" ry="1.04"/><path class="cls-2" d="M12.78,21.71v-1.49c0-.58.47-1.04,1.04-1.04h1.54c.58,0,1.04-.47,1.04-1.04v-1.49c0-.58-.47-1.04-1.04-1.04h-6.91c-.58,0-1.04.47-1.04,1.04v5.06c0,.58.47,1.04,1.04,1.04h3.29c.58,0,1.04-.47,1.04-1.04Z"/><path class="cls-2" d="M23.55,15.61h-5.13c-.58,0-1.04.47-1.04,1.04v2.46c0,.58-.47,1.04-1.04,1.04h-1.54c-.58,0-1.04.47-1.04,1.04v1.49c0,.58-.47,1.04-1.04,1.04h-.29c-.29,0-.52.23-.52.52v.83c0,.29.23.52.52.52h6.63c.58,0,1.04-.47,1.04-1.04v-.76c0-.58.47-1.04,1.04-1.04h2.41c.58,0,1.04-.47,1.04-1.04v-5.06c0-.58-.47-1.04-1.04-1.04Z"/><rect class="cls-2" x="11.91" y="6.4" width="3.69" height="8.32" rx="1.04" ry="1.04"/><rect class="cls-2" x="16.4" y="6.4" width="3.69" height="8.32" rx="1.04" ry="1.04"/><rect class="cls-2" x="20.9" y="7.57" width="3.69" height="7.14" rx="1.04" ry="1.04"/></svg>