<?xml version="1.0" encoding="UTF-8"?><svg id="Calque_1" xmlns="http://www.w3.org/2000/svg" viewBox="0 0 32 32"><defs><style>.cls-1{fill:#000;}.cls-1,.cls-2{stroke-width:0px;}.cls-2{fill:#e86d1a;}</style></defs><circle class="cls-2" cx="16" cy="16" r="16"/><path class="cls-1" d="M15.44,16.03c.31,2.63-1.38,3.9-3.22,6.07-1.17,1.6-.46,4.01,1.3,4.87-3.94-.21-7.93-2.12-6.67-6.62.88-3.12,3.73-3.68,2.4-6.89,1.34.64,2.49,1.64,2.88,3.12-.68-6.76,4.99-6.14,2.35-12.02,2.99,1.71,5.62,4.64,5.82,8.12.98-.89,1.28-2.17,1.15-3.45.49.66.9,1.46,1.32,2.2,3.41,6.11,4.71,13.67-3.97,15.48,5.13-5.27-.46-10.27-3.36-10.89Z"/></svg>